<?xml version="1.0" encoding="utf-8"?>
<!-- Generator: Adobe Illustrator 16.0.0, SVG Export Plug-In . SVG Version: 6.00 Build 0)  -->
<!DOCTYPE svg PUBLIC "-//W3C//DTD SVG 1.1//EN" "http://www.w3.org/Graphics/SVG/1.1/DTD/svg11.dtd">
<svg version="1.1" id="Layer_1" xmlns="http://www.w3.org/2000/svg" xmlns:xlink="http://www.w3.org/1999/xlink" x="0px" y="0px"
	 width="165px" height="181.404px" viewBox="0 0 165 181.404" enable-background="new 0 0 165 181.404" xml:space="preserve">
<g>
	<g>
		<circle fill="#FFFFFF" stroke="#CA4339" stroke-width="3" stroke-miterlimit="10" cx="82.5" cy="98.904" r="81"/>
	</g>
	<g>
		<defs>
			<circle id="SVGID_1_" cx="82.5" cy="98.904" r="81"/>
		</defs>
		<clipPath id="SVGID_2_">
			<use xlink:href="#SVGID_1_"  overflow="visible"/>
		</clipPath>
		<g clip-path="url(#SVGID_2_)">
			<g>
				<g>
					<path fill-rule="evenodd" clip-rule="evenodd" fill="#CA4339" d="M154.424,180.104c-0.422-0.093-1.738-0.05-1.365-0.263
						c-1.781,0.06-1.303-0.221-2.799-0.205c-2.77,0.057-5.783,0.064-8.1,0.207c-3.213-0.233-5.897-0.035-10.392-0.154
						c-3.395,0.064-5.545,0.113-9.012,0.03c-1.795,0.237-4.238,0.126-6.664,0.144c-2.289,0.018-4.787,0.11-7.105-0.022
						c-3.605,0.062-6.653,0.231-10.934,0.163c-1.918,0.164-3.479,0.286-5.722,0.158c-1.841,0.07-5.249,0.276-6.664,0.146
						c-1.441-0.081-0.958,0.208-2.397,0.127c-0.176,0.166-1.254-0.139-1.453,0.141c-1.117-0.186-0.98-0.131-2.818-0.122
						c-2.757,0.316-5.252,0.075-9.062,0.271c-18.243,0.002-41.151-0.218-59.118-0.545c-0.059,0.241-3.475-0.166-2.887,0.199
						c-1.477,0.062,1.34,0.098,0.893,0.258c0.967,0.037,0.896,0.229,1.348,0.344c2.45,0.229,3.89,0.613,6.946,0.752
						c5.79,0.077,8.425,0.062,12.753,0.188c0.925,0.038,0.961-0.096,1.453-0.141c0.93,0.199,4.078,0.062,5.16,0.238
						c1.344-0.074,2.477-0.057,3.779,0.056c0.664-0.253,2.135-0.05,3.307,0.05c-0.029-0.147,0.511-0.184,1.452-0.141
						c5.64,0.123,7.842-0.085,14.679,0.053c1.1-0.068,2.86-0.01,3.815-0.105c0.312,0.187,2.642,0.07,3.761,0.137
						c3.975-0.02,7.693-0.088,11.861-0.07c4.543-0.274,10.996-0.18,15.729-0.417c1.979,0.224,3.363-0.001,4.742-0.011
						c0.943-0.006,1.88,0.128,2.816,0.123c0.663-0.004,1.643-0.12,2.396-0.127c1.475-0.006,2.767-0.012,4.27-0.019
						c2.246-0.03,4.623-0.045,5.704-0.078c0.358-0.011,0.369-0.067,0.489-0.073c0.205-0.01,0.436,0.013,0.615,0.039
						c0.179,0.026,0.312,0.055,0.312,0.055c1.745-0.015,3.191-0.092,4.742-0.011c2.906-0.132,5.816-0.065,9.516-0.185
						c4.516,0.132,7.469-0.166,10.901-0.001c0.996-0.032,1.391-0.181,2.867-0.12c1.156-0.182,0.854,0.133,2.346,0.115
						c0.955-0.152,3.195-0.058,4.305-0.181c1.844,0.02,3.463-0.003,4.303-0.179c0.119-0.062,0.049-0.16,0.508-0.155
						C156.904,180.551,154.057,180.441,154.424,180.104z M128.583,181.265c-0.234-0.044,0.365-0.097,0.49-0.073
						C129.308,181.236,128.71,181.289,128.583,181.265z"/>
				</g>
			</g>
			<g>
				<g>
					<path fill-rule="evenodd" clip-rule="evenodd" fill="#CA4339" stroke="#CA4339" stroke-miterlimit="10" d="M34.183,178.021
						c0.029-0.375,0.013-1.146,0.021-1.742c0.017-0.596,0.05-1.016,0.163-0.686c-0.094-3.162,0.195-2.311,0.234-4.955
						c0.061-2.447,0.25-4.994,0.531-7.427c0.168-1.21,0.311-2.401,0.527-3.526c0.173-1.135,0.424-2.195,0.63-3.193
						c0.048-0.169,0.097-0.337,0.144-0.505l0.168-0.483c0.108-0.322,0.217-0.64,0.324-0.956c0.104-0.318,0.209-0.634,0.313-0.949
						l0.386-0.966c0.127-0.322,0.254-0.646,0.383-0.971l0.094-0.243l0.049-0.123l0.012-0.03l-0.121-0.008
						c0.016-0.036-0.137,0.046-0.137,0.036v-0.003l0.13-0.015l0.089-0.056l0.242-0.452c0.27-0.61,0.616-1.206,0.955-1.815
						c1.398-2.418,3.361-4.893,6.269-7.535c2.158-2.039,4.089-3.547,6.096-4.967c2.014-1.408,4.123-2.732,6.832-4.148
						c1.334-0.852,3.005-1.734,4.83-2.475c0.231-0.096,0.453-0.178,0.667-0.254c0.102-0.04,0.239-0.079,0.36-0.119l0.215-0.066
						l0.177-0.052c0.235-0.069,0.474-0.139,0.712-0.208c0.237-0.072,0.477-0.144,0.733-0.188c0.507-0.098,1.009-0.22,1.527-0.305
						c0.522-0.078,1.046-0.157,1.569-0.236c3.981-0.5,8.443-0.681,12.547-0.379c3.2,0.089,6.153,0.291,9.234,0.651
						c0.387,0.046,0.773,0.091,1.164,0.137c0.389,0.058,0.78,0.117,1.176,0.176c0.793,0.115,1.598,0.241,2.416,0.409
						c0.41,0.08,0.826,0.16,1.248,0.241c0.42,0.087,0.832,0.195,1.26,0.296c0.426,0.104,0.854,0.201,1.295,0.318
						c0.445,0.131,0.896,0.267,1.355,0.404c1.628,0.383,3.109,0.857,4.613,1.425c1.504,0.577,3.043,1.278,4.764,2.263
						c1.451,0.729,3.483,1.863,5.318,3.129c1.836,1.266,3.457,2.668,4.305,3.588c0.447,0.453,0.742,0.756,0.969,0.977
						c0.229,0.221,0.4,0.35,0.559,0.49c0.312,0.286,0.658,0.547,1.428,1.564c0.348,0.129,1.229,1.843,1.646,1.983
						c0.248,0.431,0.395,0.759,0.547,1.026c0.146,0.268,0.27,0.492,0.412,0.752c0.285,0.52,0.695,1.154,1.365,2.631
						c0.301,0.532,0.533,1.088,0.781,1.637c0.219,0.561,0.447,1.117,0.623,1.696c0.381,1.152,0.637,2.335,0.861,3.62
						c0.35,2.549,0.779,5.346,1.172,8.732c0.051,0.564,0.125,1.129,0.158,1.7c0.037,0.571,0.074,1.146,0.111,1.727
						c0.035,0.58,0.072,1.165,0.111,1.757c0.031,0.592,0.037,1.191,0.059,1.797c0.016,0.607,0.031,1.221,0.047,1.844
						c-0.006,0.623-0.008,1.255-0.014,1.897c-0.018,1.281-0.072,2.61-0.203,3.97c0.049-0.042,0.105-0.094,0.164-0.146
						c-29.18-0.049-63.502-0.252-91.248-0.533c-0.105,0.241-6.23-0.166-5.176,0.199c-2.648,0.062,2.402,0.098,1.6,0.258
						c1.732,0.037,1.607,0.229,2.416,0.344c4.394,0.229,6.975,0.613,12.455,0.752c10.383,0.077,15.104,0.062,22.867,0.188
						c1.656,0.038,1.721-0.096,2.604-0.141c1.668,0.199,7.312,0.062,9.254,0.238c2.408-0.074,4.438-0.057,6.776,0.056
						c1.19-0.253,3.827-0.05,5.929,0.05c-0.055-0.147,0.914-0.184,2.602-0.141c10.111,0.123,14.06-0.085,26.32,0.053
						c1.01-0.035,2.328-0.037,3.602-0.043l1.01-0.005l0.094-0.972c0.131-1.307,0.148-2.479,0.137-3.339
						c0.105-0.282,0.125-1.483,0.133-2.87c-0.047-1.38-0.072-2.948-0.113-3.961c-0.123-1.796-0.221-3.566-0.432-5.312
						c-0.094-0.875-0.184-1.748-0.277-2.62c-0.109-0.87-0.242-1.737-0.363-2.608c-0.123-0.87-0.246-1.744-0.371-2.623l-0.049-0.33
						l-0.062-0.354l-0.119-0.652c-0.07-0.427-0.188-0.895-0.295-1.355c-0.441-1.826-1.055-3.609-1.863-5.381
						c-0.465-0.951-1.021-1.914-1.625-2.895c-0.631-0.963-1.295-1.955-2.062-2.899c-0.754-0.956-1.572-1.894-2.455-2.789
						c-0.871-0.905-1.812-1.765-2.783-2.584c-3.892-3.283-8.409-5.776-12.412-7.335c-1.611-0.809-3.057-1.331-4.389-1.735
						c-0.705-0.211-1.309-0.347-1.934-0.513c-0.606-0.171-1.239-0.285-1.85-0.435l-1.252-0.312l-1.244-0.288
						c-0.412-0.097-0.828-0.198-1.242-0.286c-0.417-0.079-0.836-0.153-1.254-0.22c-1.185-0.204-2.957-0.306-4.311-0.461
						c-2.648-0.272-4.973-0.457-7.682-0.55c-4.053-0.148-8.347,0.053-10.294,0.255c-0.646,0.075-0.658,0.136-0.875,0.163
						c-0.369,0.049-0.786,0.066-1.112,0.074c-0.164,0.002-0.305,0.009-0.404,0.014c-0.102,0.004-0.162,0.008-0.166,0.008
						c-0.784,0.129-1.537,0.214-2.262,0.396c-0.363,0.081-0.721,0.16-1.073,0.237c-0.351,0.107-0.698,0.213-1.042,0.316
						l-0.494,0.151c-0.167,0.057-0.322,0.1-0.496,0.165c-0.348,0.123-0.67,0.25-0.994,0.378c-0.645,0.262-1.281,0.535-1.926,0.816
						c-2.354,1.184-4.642,2.473-7.012,3.973c-2.365,1.504-4.812,3.23-7.326,5.436c-6.275,5.207-9.211,10.149-10.981,16.061
						c-0.269,0.869-0.349,1.494-0.496,2.217c-0.071,0.361-0.152,0.748-0.256,1.205c-0.083,0.463-0.188,0.995-0.329,1.646
						c-0.117,1.038-0.186,1.413-0.311,1.86c-0.061,0.223-0.129,0.465-0.205,0.816c-0.078,0.354-0.167,0.816-0.229,1.486
						c-0.097,1.723-0.447,5.738-0.345,7.738c-0.098,3.312,0.056,6.23,0.335,7.719c0.076,0.21,0.161,0.076,0.22,0.896
						c0.206,1.061,0.215,0.324,0.247-0.599C33.937,178.812,34.001,177.703,34.183,178.021z M48.938,136.584
						c0.364-0.221-0.465,0.474-0.657,0.597C47.919,137.404,48.739,136.701,48.938,136.584z"/>
				</g>
			</g>
			<g>
				<path fill="#FFFFFF" d="M71.101,111.354c0,0,0.149,8.401,0.45,14.251c0.3,5.85,2.249,10.35,10.649,10.649
					s10.35-4.95,10.65-10.649c0.301-5.701-1.049-10.35-1.049-10.35L72.3,109.104L71.101,111.354z"/>
			</g>
			<g>
				<g>
					<path fill-rule="evenodd" clip-rule="evenodd" fill="#CA4339" stroke="#CA4339" stroke-miterlimit="10" d="M72.194,110.95
						c0.192-0.161,0.496-0.824,0.588-0.542c0.243-0.533,0.386-0.621,0.539-0.759c-0.442,0.181-0.906,0.37-1.369,0.56
						c0.111,0.086,0.246,0.174,0.57,0.269c1.477,0.407,3.068,0.901,4.334,1.15c1.623,0.757,3.1,1.014,5.435,1.875
						c1.81,0.505,2.957,0.815,4.761,1.472c1.018,0.071,2.272,0.583,3.558,0.97c0.292,0.085,0.591,0.173,0.894,0.259
						c-0.217-0.221-0.437-0.445-0.656-0.67c0.27,0.87,0.486,1.885,0.549,2.822c0.088,0.479,0.172,0.937,0.258,1.393
						c0.082,0.455,0.137,0.912,0.205,1.379c0.076,0.471,0.103,0.941,0.131,1.442c0.027,0.501,0.057,1.023,0.012,1.624
						c0.068,0.521,0.139,1.039,0.153,1.492c0.002,0.491-0.032,1.006-0.174,1.592c-0.005,0.248-0.03,0.543-0.06,0.863
						c-0.014,0.159-0.03,0.326-0.045,0.493l-0.08,0.497c-0.047,0.334-0.129,0.65-0.22,0.926c-0.081,0.279-0.175,0.515-0.283,0.669
						c-0.364,0.66,0.011,0.557-0.425,1.187c0.045,0.079-0.051,0.217-0.166,0.342c-0.112,0.124-0.211,0.256-0.128,0.381
						c-0.248,0.187-0.336,0.277-0.466,0.397c-0.131,0.118-0.246,0.312-0.591,0.644c-0.108,0.144-0.226,0.284-0.347,0.42
						c-0.061,0.066-0.121,0.137-0.188,0.197l-0.217,0.163c-0.289,0.218-0.592,0.435-0.952,0.581
						c-0.175,0.084-0.354,0.17-0.538,0.256c-0.195,0.066-0.396,0.133-0.604,0.203c-0.407,0.168-0.869,0.261-1.369,0.414
						c-0.304,0.076-0.618,0.08-0.932,0.117c-0.314,0.023-0.623,0.077-0.953,0.064c-0.324,0-0.65,0.002-0.979,0.002
						c-0.317,0.013-0.651-0.038-0.978-0.055c-1.317-0.084-2.66-0.316-3.932-0.785c-1.271-0.463-2.466-1.201-3.357-2.236
						c-0.907-1.026-1.463-2.327-1.785-3.668c-0.324-1.348-0.439-2.74-0.467-4.129c-0.012-1.406-0.025-2.799-0.037-4.172
						c-0.009-2.742-0.018-5.398-0.025-7.884c-0.242-0.024,0.105-1.927-0.25-1.589c-0.087-0.814-0.074,0.744-0.241,0.503
						c-0.021,0.534-0.215,0.503-0.321,0.756c-0.188,1.362-0.545,2.171-0.629,3.865c0.023,3.204,0.085,4.658,0.035,7.056
						c-0.023,0.513,0.111,0.527,0.166,0.799c-0.047,0.129-0.883,0.335-0.893,0.581c-0.004,0.123-0.822,0.255-0.822,0.394v0.104
						l0.82,0.145l0.417,0.213c0.012,0.288,0.229,0.58,0.239,0.837c0.017,0.272,0.121,0.511,0.098,0.677
						c0.172,0.785,0.322,1.428,0.412,2.22c0.161,0.163,0.295,0.464,0.382,0.818c0.046,0.177,0.082,0.368,0.13,0.558
						c0.052,0.19,0.11,0.381,0.158,0.558c0.133-0.079,0.272,0.218,0.541,0.745c0.833,1.568,1.851,2.44,2.968,3.126
						c1.138,0.673,2.45,1.206,4.436,1.613c0.328,0.013,0.746,0.079,1.152,0.12c0.405,0.023,0.801,0.042,1.079,0.012
						c0.044,0.051,0.159,0.086,0.321,0.114l0.062,0.01l0.033,0.005l0.082,0.003c0.043,0.002,0.09,0.004,0.137,0.007
						c0.095,0,0.197,0.002,0.301,0.004c0.43-0.007,0.879,0.001,1.229,0.002c0.307-0.031,0.61-0.063,0.912-0.096
						c0.152-0.018,0.303-0.029,0.451-0.053l0.436-0.093l0.866-0.189l0.854-0.29c1.125-0.428,2.256-1.028,3.221-1.953
						c0.234-0.277,0.457-0.587,0.701-0.891c0.209-0.326,0.427-0.665,0.631-1.015c0.373-0.72,0.715-1.487,0.938-2.28
						c0.477-1.578,0.642-3.195,0.612-4.54c0.038-0.149,0.068-0.25,0.093-0.427c0.018-0.127,0.028-0.25,0.036-0.368
						c0.015-0.237,0.012-0.46,0-0.671c-0.027-0.426-0.053-0.812-0.078-1.193c-0.027-0.537,0.086-1.074,0.058-1.612
						c-0.016-0.382-0.198-0.918-0.239-1.341c-0.077-0.826-0.186-1.547-0.324-2.383c-0.221-1.162-0.506-2.365-0.695-2.934
						l-0.107-0.321l-0.284-0.08c-0.125-0.034-0.165-0.047-0.204-0.058c-0.193-0.05-0.217,0.004-0.281-0.01
						c-0.223-0.05-0.461-0.246-0.461-0.246c-0.924-0.276-1.71-0.443-2.504-0.777c-1.572-0.358-3.088-0.906-5.074-1.408
						c-2.342-0.877-3.988-1.084-5.75-1.812c-0.535-0.133-0.787-0.058-1.549-0.361c-0.664-0.02-0.408-0.27-1.201-0.5
						c-0.55-0.015-1.702-0.477-2.324-0.545c-0.089-0.029-0.177-0.058-0.262-0.086l-0.181-0.061l-0.093,0.172
						c-0.435,0.793-0.77,1.496-0.828,1.941c0.023,0.088,0.129,0.1,0.004,0.321C71.155,111.951,71.992,110.613,72.194,110.95z
						 M84.444,112.531c0.109,0.081-0.221,0.031-0.281-0.012C84.053,112.438,84.385,112.486,84.444,112.531z"/>
				</g>
			</g>
			<g>
				<path fill="#FFFFFF" d="M69.899,123.355c2.25,1.049,9.9,10.649,9.9,12.899s-0.6,9.45-3.15,8.7
					c-2.549-0.75-13.35-13.801-13.648-16.35C62.7,126.055,67.649,122.305,69.899,123.355z"/>
			</g>
			<g>
				<g>
					<path fill-rule="evenodd" clip-rule="evenodd" fill="#CA4339" stroke="#CA4339" stroke-miterlimit="10" d="M69.406,122.426
						c-0.105-0.065-0.325-0.085-0.495-0.111c-0.166-0.02-0.29-0.053-0.203-0.165c-0.449,0.068-0.602,0.06-0.756,0.028
						c-0.151-0.028-0.289-0.062-0.627,0.057c-1.223,0.469-2.305,1.227-2.975,1.991c-0.602,0.367-1.064,0.839-1.504,1.446
						c-0.219,0.305-0.427,0.653-0.623,1.075c-0.098,0.21-0.19,0.444-0.266,0.711c-0.043,0.128-0.072,0.274-0.102,0.424
						c-0.033,0.137-0.047,0.376-0.057,0.554c0.012,0.109,0.022,0.215,0.033,0.318c0.027,0.133,0.059,0.264,0.092,0.389
						c0.07,0.216,0.143,0.39,0.217,0.553c0.146,0.312,0.293,0.573,0.437,0.836c0.286,0.493,0.573,0.989,0.93,1.605
						c0.595,0.472,1.057,1.324,1.642,2.086c0.549,0.719,1.221,1.439,1.684,2.235c0.934,1.07,1.822,1.884,2.872,3.197
						c0.616,0.461,1.116,0.831,1.616,1.567c0.539,0.488,1.615,1.307,1.926,1.785c0.35,0.457,0.411,0.117,0.771,0.564
						c0.16-0.074,0.273,0.438,0.52,0.281c0.21,0.43,0.2,0.359,0.788,0.811c0.135,0.058,0.266,0.113,0.394,0.168
						c0.124,0.057,0.253,0.121,0.397,0.184c0.143,0.07,0.269,0.111,0.395,0.156c0.176,0.051,0.318,0.082,0.495,0.077
						c0.343,0.005,0.698-0.143,0.961-0.386c0.265-0.241,0.46-0.557,0.599-0.915c0.428-0.812,0.672-1.712,0.875-2.634
						c0.199-0.922,0.336-1.877,0.439-2.848c0.049-0.486,0.091-0.977,0.118-1.471c0.013-0.248,0.024-0.5,0.028-0.749
						c-0.008-0.296-0.08-0.552-0.162-0.8c-0.348-0.978-0.859-1.846-1.375-2.711c-1.053-1.715-2.215-3.348-3.395-4.892
						c-1.193-1.542-2.367-3.001-3.688-4.274c-0.092,0.084-0.326-0.18-0.587-0.401c-0.126-0.112-0.302-0.231-0.397-0.272
						c-0.09-0.028-0.146-0.01-0.139,0.099c-0.266-0.11-0.164-0.026-0.022,0.091c0.149,0.127,0.347,0.327,0.217,0.334
						c0.297,0.266,0.151,0.396,0.214,0.598c0.574,0.784,0.684,1.443,1.38,2.379c1.431,1.679,2.072,2.468,2.993,3.846
						c0.186,0.303,0.3,0.232,0.449,0.355c0.06,0.4,0.877,1.292,0.964,1.731c0.353,0.374,0.577,0.741,0.748,1.213
						c0.347,0.073,0.469,0.651,0.592,1.068c0.118-0.083,0.257,0.074,0.374,0.392c0.205,0.454,0.364,0.848,0.432,1.104
						c0.012,0.053,0.035,0.128,0.028,0.128c0,0.015,0.009,0.002,0.009,0.039l0.002,0.154c-0.001,0.19-0.002,0.379-0.004,0.572
						c-0.018,0.781-0.057,1.641-0.307,2.889c0.01,0.416-0.164,1.043-0.147,1.401c-0.2,0.074-0.291,0.913-0.487,1.245
						c-0.105,0.316-0.222,0.617-0.352,0.858c-0.123,0.243-0.277,0.425-0.336,0.462c-0.032,0.036-0.023,0.008-0.018,0.027
						c0.006-0.007-0.033,0.009-0.063-0.012l-0.136-0.053c-0.043-0.018-0.039-0.027-0.062-0.04c-0.041-0.03-0.048-0.022-0.124-0.076
						c-0.133-0.092-0.269-0.181-0.412-0.299c-0.713-0.371-1.514-1.062-2.283-1.779c-0.773-0.722-1.529-1.485-2.227-2.085
						c-0.343-0.716-0.861-0.969-1.215-1.367c-0.241-0.271-0.375-0.633-0.609-0.907c-0.168-0.191-0.498-0.407-0.688-0.629
						c-0.374-0.431-0.674-0.828-1.05-1.271c-0.564-0.658-1.129-1.381-1.407-1.693c-0.091-0.104-0.14-0.074-0.172-0.107
						c-0.11-0.115-0.136-0.344-0.136-0.344c-0.411-0.531-0.797-0.941-1.067-1.477c-0.365-0.424-0.692-0.879-1.007-1.377
						c-0.309-0.494-0.646-1.043-0.9-1.615c-0.003-0.078-0.027-0.172-0.023-0.225c-0.002-0.105-0.004-0.215,0.009-0.271
						c0.009-0.131,0.048-0.311,0.088-0.459c0.085-0.309,0.212-0.603,0.357-0.879c0.294-0.548,0.675-1.029,1.196-1.403
						c0.25-0.271,0.27-0.487,0.754-0.772c0.254-0.398,0.336-0.081,0.795-0.381c0.23-0.322,1.027-0.593,1.388-0.804
						c0.671-0.183,1.229-0.183,1.575-0.261c0.059-0.043,0.062-0.158,0.238-0.082c0.275-0.011,0.165-0.146-0.04-0.325
						C69.591,122.725,69.296,122.582,69.406,122.426z M63.679,129.381c-0.005,0.099-0.143-0.08-0.141-0.133
						C63.545,129.15,63.683,129.328,63.679,129.381z"/>
				</g>
			</g>
			<g>
				<path fill="#FFFFFF" d="M97.187,123.355c-2.25,1.049-9.899,10.649-9.899,12.899s0.599,9.45,3.149,8.7
					s13.352-13.801,13.652-16.35C104.388,126.055,99.437,122.305,97.187,123.355z"/>
			</g>
			<g>
				<g>
					<path fill-rule="evenodd" clip-rule="evenodd" fill="#CA4339" stroke="#CA4339" stroke-miterlimit="10" d="M97.872,123.965
						c0.107,0.065,0.477,0.046,0.359,0.256c0.242-0.012,0.336,0.072,0.402,0.148c0.068,0.076,0.121,0.16,0.338,0.221
						c0.829,0.212,1.723,0.791,2.41,1.201c0.34,0.451,0.671,0.816,0.985,1.232c0.157,0.209,0.298,0.433,0.404,0.67
						c0.056,0.119,0.097,0.241,0.12,0.357c0.018,0.061-0.486,0.115-0.482,0.172c0.01,0.066-0.506,0.042-0.506,0.082v0.123v0.061
						v0.029v0.015v0.009c0,0.055,1.143,1.127,1.116,1.127h-0.005h-0.01l-0.525-0.596l-0.576-0.632v0.02l0.504,0.017l0.25,0.021
						c-0.002,0.011,0.126,0.022,0.126,0.035c-0.016,0.073,0.021,0.177-0.016,0.276c-0.077,0.213-0.146,0.432-0.257,0.65
						c-0.232,0.44-0.493,0.882-0.886,1.402c-0.174,0.695-0.793,1.398-1.329,2.154c-0.504,0.716-1.015,1.535-1.672,2.149
						c-0.816,1.122-1.43,2.14-2.565,3.339c-0.358,0.664-0.671,1.195-1.345,1.748c-0.428,0.567-1.189,1.657-1.672,1.941
						c-0.451,0.327-0.117,0.408-0.576,0.727c0.064,0.172-0.445,0.22-0.316,0.479c-0.443,0.141-0.364,0.154-0.9,0.586
						c-0.077,0.112-0.162,0.21-0.252,0.298c-0.091,0.095-0.182,0.174-0.273,0.235c-0.082,0.071-0.202,0.13-0.328,0.183
						c-0.08,0.028-0.211,0.067-0.315,0.06c-0.446,0.018-0.868-0.376-1.286-0.959c-0.402-0.76-0.641-1.646-0.826-2.553
						c-0.182-0.908-0.299-1.854-0.375-2.816c-0.037-0.481-0.062-0.967-0.076-1.453c-0.003-0.244-0.006-0.485-0.001-0.729
						c0.015-0.198,0.075-0.422,0.159-0.642c0.352-0.881,0.893-1.725,1.438-2.542c1.111-1.633,2.355-3.18,3.619-4.616
						c1.266-1.424,2.562-2.781,3.863-3.818c-0.07-0.094,0.202-0.279,0.438-0.418c0.117-0.072,0.191-0.105,0.25-0.167
						c0.072-0.06,0.088-0.116-0.006-0.169c0.238-0.165,0.111-0.123-0.064-0.07c-0.162,0.053-0.34,0.121-0.327,0.016
						c-0.308,0.18-0.411,0.017-0.617,0.039c-0.882,0.443-1.562,0.586-2.499,1.373c-1.609,1.646-2.236,2.468-3.393,3.737
						c-0.254,0.267-0.155,0.359-0.236,0.541c-0.385,0.171-1.01,1.259-1.396,1.515c-0.248,0.48-0.51,0.846-0.891,1.227
						c0.067,0.359-0.416,0.752-0.743,1.128c0.136,0.063,0.053,0.267-0.167,0.599c-0.301,0.518-0.531,0.974-0.689,1.548
						c-0.035,0.156-0.075,0.284-0.09,0.493c-0.006,0.088-0.016,0.205-0.014,0.27l0.004,0.152c0.006,0.219,0.018,0.439,0.031,0.649
						c0.061,0.856,0.136,1.753,0.264,3.137c0.133,0.43,0.203,1.15,0.385,1.517c-0.163,0.166,0.188,1.086,0.296,1.57
						c0.151,0.412,0.321,0.818,0.569,1.234c0.252,0.408,0.557,0.855,1.143,1.226c0.275,0.188,0.664,0.312,1.045,0.352
						c0.387,0.014,0.738-0.035,1.064-0.175c0.121-0.036,0.519-0.247,0.714-0.377c0.194-0.129,0.392-0.262,0.563-0.397
						c0.691-0.703,1.447-1.483,2.196-2.294c0.747-0.809,1.468-1.641,2.001-2.41c0.684-0.431,0.871-0.99,1.216-1.404
						c0.235-0.284,0.578-0.477,0.809-0.762c0.165-0.201,0.321-0.57,0.503-0.803c0.356-0.455,0.688-0.839,1.037-1.312
						c0.525-0.705,1.076-1.458,1.305-1.816c0.073-0.119,0.031-0.156,0.054-0.199c0.079-0.141,0.292-0.235,0.292-0.235
						c0.396-0.559,0.66-1.067,1.074-1.524c0.266-0.513,0.572-0.994,0.877-1.534c0.301-0.545,0.635-1.107,0.836-1.901
						c0.037-0.138,0.082-0.25,0.098-0.408c0.01-0.102,0.022-0.199,0.014-0.345c-0.009-0.272-0.06-0.475-0.123-0.686
						c-0.13-0.411-0.325-0.745-0.529-1.044c-0.412-0.598-0.866-1.055-1.32-1.589c-0.321-0.25-0.532-0.241-0.97-0.642
						c-0.481-0.114-0.198-0.312-0.729-0.613c-0.4-0.072-1.187-0.545-1.67-0.537c-0.357-0.111-0.714-0.172-1.025-0.153
						c-0.309,0.022-0.564,0.106-0.701,0.24c-0.025,0.073,0.021,0.149-0.135,0.207c-0.16,0.18,0.025,0.197,0.197,0.235
						C97.716,123.696,97.902,123.791,97.872,123.965z M104.104,129.715c-0.08,0.068-0.027-0.178,0.016-0.215
						C104.2,129.43,104.147,129.676,104.104,129.715z"/>
				</g>
			</g>
			<g>
				<g>
					<path fill-rule="evenodd" clip-rule="evenodd" fill="#CA4339" stroke="#CA4339" stroke-miterlimit="10" d="M94.491,157.578
						c-0.234,0.202-0.312,0.877-0.482,0.652c-0.029,0.448-0.066,0.58-0.132,0.723c-0.051,0.131-0.124,0.26-0.068,0.598
						c0.053,0.312,0.139,0.622,0.255,0.943c0.062,0.16,0.129,0.322,0.227,0.498c0.039,0.08,0.1,0.176,0.167,0.271l0.099,0.137
						c0.044,0.058,0.133,0.153,0.205,0.221c0.08,0.073,0.162,0.14,0.246,0.198c0.061,0.04,0.064,0.035,0.1,0.055l0.038,0.022
						l0.021,0.009l0.006,0.342l0.172,0.422h0.002h0.004h0.008l0.035-0.326c0.096,0.025,0.192,0.175,0.289,0.188l0.07,0.138h0.029
						l0.057-0.295l0.114-0.146c0.079,0.002,0.146-0.073,0.206-0.077c0.256-0.01,0.481-0.07,0.693-0.103
						c1.157,0.244,2.108,0.019,3.703,0.109c1.201-0.086,1.961-0.162,3.188-0.113c0.63-0.254,1.496-0.178,2.353-0.223
						c0.809-0.046,1.689-0.172,2.514-0.073c1.272-0.115,2.341-0.332,3.858-0.345c0.67-0.2,1.213-0.357,2.015-0.282
						c0.648-0.111,1.837-0.413,2.355-0.342c0.528,0.022,0.316-0.241,0.851-0.237c0.026-0.09,0.121-0.064,0.275-0.077
						c0.162-0.018,0.336,0.137,0.287,0c0.028,0.001,0.053,0.203,0.078,0.203h0.018h0.008h0.002h0.053h0.006l0.04-0.237
						c0.051-0.023,0.095-0.158,0.136-0.184c0.088-0.05,0.129-0.161,0.181-0.228c0.051-0.068,0.099-0.178,0.136-0.289
						c0.051-0.114,0.082-0.267,0.127-0.457c-0.062-0.583-0.107-1.059-0.227-1.593c-0.061-0.264-0.15-0.542-0.311-0.82
						c-0.141-0.258-0.486-0.622-0.893-0.556c-0.846-0.037-1.652-0.002-2.51,0.014c-0.85,0.022-1.72,0.045-2.601,0.068
						c-1.761,0.049-3.573,0.1-5.384,0.149c-3.623,0.083-7.234,0.167-10.414,0.239c-0.002,0.121-0.328,0.108-0.625,0.11
						c-0.305-0.001-0.537,0.028-0.41,0.193c-0.506,0.126,0.484,0.033,0.355,0.216c0.354,0.006,0.352,0.199,0.521,0.299
						c0.876,0.158,1.408,0.506,2.49,0.572c2.039-0.055,2.965-0.125,4.494-0.087c0.326,0.02,0.332-0.114,0.502-0.169
						c0.338,0.179,1.438-0.018,1.828,0.137c0.471-0.098,0.869-0.105,1.333-0.016c0.22-0.264,0.749-0.088,1.165-0.01
						c-0.018-0.146,0.171-0.193,0.505-0.168c1.988,0.027,2.755-0.222,5.161-0.179c0.383-0.083,1.002-0.046,1.334-0.153
						c0.114,0.184,0.923,0.047,1.309,0.107c0.166-0.004,0.33-0.008,0.493-0.01l0.123,0.023l0.062,0.025h0.025
						c0.027,0,0.054,0.006,0.084-0.002l0.022,0.002h-1.563v-0.041c0-0.024,1.732,0.041,1.398,0.041h0.002l0.007-0.061l0.015-0.026
						l0.029-0.003c0.029,0.012,0.104,0.029,0.098,0.031c-0.056-0.014-0.784-0.046-0.828-0.083c-0.018-0.014-0.721-0.056-0.721-0.053
						v0.194c0,0,1.237,0,1.242,0l0.078-0.059c0.018,0.018,0.067,0.009,0.087,0.054c0.176,0.336,0.286,0.962,0.186,1.341
						c0.014,0.104,0.007,0.175,0.038,0.174c0.01,0.001,0.027,0.235,0.047,0.235l0.02,0.255h-0.697v-0.622
						c0-0.179,0.432-0.001,0.496-0.04l-0.229,0.024l-0.268,0.016v0.015l0.336,0.043c-0.033,0.021,0.174,0.016,0.178,0.011
						c0-0.003,0.104-0.005,0.105-0.005c-0.004-0.002,0.085,0.002,0.013,0.017c-0.383,0.103-0.844,0.173-1.312,0.239
						c-0.952,0.129-1.917,0.229-2.738,0.398c-0.708-0.182-1.173,0.07-1.657,0.105c-0.33,0.021-0.664-0.096-0.992-0.074
						c-0.232,0.015-0.57,0.146-0.836,0.165c-0.518,0.028-0.97,0.054-1.498,0.083c-0.79,0.062-1.625,0.107-2.004,0.154
						c-0.127,0.016-0.129,0.072-0.172,0.08c-0.144,0.025-0.328-0.084-0.328-0.084c-0.615,0.035-1.121,0.131-1.67,0.065
						c-1.02,0.161-2.046,0.123-3.347,0.269c-1.591-0.103-2.63,0.211-3.834,0.039c-0.347,0.028-0.492,0.178-0.999,0.096
						c-0.098,0.039-0.164,0.047-0.215,0.039c-0.05-0.008-0.053,0.481-0.067,0.456l-0.003,0.511l0,0h-0.102l-0.857-0.836v-0.088
						V160.7l0.5-0.024l0.246-0.016l0.116-0.023l0.042-0.041c-0.017-0.027-0.003-0.056-0.025-0.084
						c0.005-0.062,0.049-0.029-0.019-0.13c-0.133-0.053-0.249-0.286-0.327-0.538c-0.084-0.251-0.125-0.523-0.201-0.701
						c-0.029-0.627,0.05-1.097,0.135-1.378c-0.005-0.037-0.023-0.07-0.027-0.109c-0.005-0.038,0.01-0.089,0.104-0.121
						c0.1-0.099,0.123-0.156,0.065-0.187c-0.051-0.025-0.2-0.035-0.352,0.014c-0.071,0.027-0.151,0.064-0.229,0.102
						c-0.071,0.038-0.124,0.078-0.185,0.109C94.635,157.635,94.536,157.67,94.491,157.578z M101.646,160.542
						c0.085,0.042-0.126,0.101-0.171,0.077C101.392,160.575,101.601,160.518,101.646,160.542z"/>
				</g>
			</g>
			<g>
				<g>
					<path fill-rule="evenodd" clip-rule="evenodd" fill="#CA4339" stroke="#CA4339" stroke-miterlimit="10" d="M82.82,149.322
						c-0.031-0.096-0.22-0.139-0.081-0.313c-0.248-0.06-0.042-0.275-0.223-0.384c-0.373-0.211-0.759-0.697-1.135-1.032
						c-0.146-0.694-0.592-1.126-0.833-2.105c-0.316-0.681-0.504-1.14-0.588-1.9c-0.321-0.333-0.308-0.898-0.348-1.38
						c-0.046-0.419-0.064-0.939,0.188-1.362c0.122-0.704,0.248-1.384,0.837-2.036c0.123-0.39,0.272-0.748,0.73-0.911
						c0.243-0.28,0.815-0.816,1.165-0.752c0.31-0.019,0.138-0.263,0.454-0.252c0.012-0.177,0.271,0.084,0.299-0.198
						c0.145,0.081,0.204,0.11,0.286,0.11c0.04,0,0.086-0.007,0.148-0.017c0.016-0.002,0.031,0.44,0.05,0.438
						c-0.002,0,0.043,0.441,0.004,0.441H83.8c0.038,0,0.082-0.446,0.131-0.446c0.146-0.071,0.304-0.354,0.453-0.354
						c0.148,0.006,0.304-0.097,0.455-0.054c0.293,0.107,0.603,0.17,0.955,0.418c0.356,0.367,0.575,0.851,0.702,1.394
						c0.13,0.543,0.18,1.111,0.183,1.701c0.004,0.591-0.024,1.186-0.07,1.793c-0.044,0.611-0.1,1.208-0.193,1.808
						c-0.196,1.191-0.502,2.369-0.978,3.396c-0.242,0.506-0.51,0.992-0.848,1.354c-0.32,0.365-0.723,0.62-1.027,0.675
						c0.016,0.061-0.005,0.087-0.044,0.102c-0.051,0.011-0.059,0.033-0.177,0.017c-0.191-0.017-0.36-0.019-0.281,0.165
						c-0.35,0.079,0.328,0.082,0.229,0.252c0.236,0.031,0.208,0.203,0.347,0.297c0.647,0.064,1.312,0.131,2.009-0.47
						c0.553-0.638,0.794-1.155,1.03-1.614c0.103-0.232,0.202-0.453,0.306-0.682c0.093-0.229,0.19-0.463,0.299-0.727
						c0.097-0.221-0.032-0.266-0.046-0.398c0.266-0.184,0.289-1.001,0.507-1.242c-0.01-0.351,0.034-0.631,0.194-0.948
						c-0.242-0.199,0.014-0.544,0.128-0.84c-0.148-0.003-0.176-0.144-0.118-0.38c0.097-0.678,0.097-1.163,0.086-1.693
						c-0.021-0.537-0.016-1.098-0.058-2.033c-0.057-0.146-0.09-0.342-0.128-0.531c-0.05-0.195-0.108-0.386-0.186-0.505
						c0.167-0.14-0.178-0.786-0.318-1.144c-0.342-0.585-0.884-1.105-1.53-1.412c-0.645-0.275-1.306-0.375-1.928-0.369l-0.132,0.023
						l-0.031,0.006l-0.387,0.003l-0.431,0.042v1.396h0.735l-0.002-0.715l-0.007-0.356l-0.053-0.163
						c-0.07,0.02-0.141-0.049-0.213-0.028c-0.156,0.046-0.271,0.016-0.487,0.081c-0.194,0.057-0.396,0.087-0.59,0.149
						c-0.182,0.072-0.364,0.132-0.548,0.204c-0.721,0.32-1.372,0.8-1.759,1.33c-0.562,0.208-0.631,0.672-0.837,0.969
						c-0.143,0.207-0.389,0.35-0.512,0.574c-0.077,0.164-0.104,0.445-0.169,0.635c-0.143,0.364-0.275,0.684-0.354,1.075
						c-0.126,0.579-0.178,1.224-0.143,1.501c0.013,0.1,0.072,0.104,0.078,0.138c0.021,0.116-0.09,0.255-0.09,0.255
						c0.042,0.459,0.174,0.808,0.16,1.205c0.266,0.691,0.373,1.409,0.787,2.234c0.251,1.105,0.84,1.639,1.119,2.454
						c0.162,0.196,0.336,0.198,0.494,0.534c0.325,0.119,0.01,0.256,0.272,0.539c0.267,0.089,0.613,0.564,0.935,0.625
						c0.372,0.297,0.83,0.416,1.062,0.268c0.039-0.058,0.039-0.16,0.141-0.141c0.142-0.095,0.047-0.193-0.031-0.305
						C82.809,149.627,82.747,149.475,82.82,149.322z M78.783,145.307c0.026-0.069,0.122,0.054,0.108,0.092
						C78.864,145.467,78.77,145.342,78.783,145.307z"/>
				</g>
			</g>
		</g>
	</g>
	<g>
		<path fill="#FFFFFF" d="M36.507,53.305c0,0-4.2-0.15-4.949,3.15c-0.752,3.301,1.949,7.05,1.799,9.9
			c-0.15,2.85-2.699,5.4-1.35,7.65s4.8,3.299,6.15,2.25c1.35-1.051,2.999-23.701,2.549-23.851
			C40.257,52.255,36.507,53.305,36.507,53.305z"/>
	</g>
	<g>
		<g>
			<path fill-rule="evenodd" clip-rule="evenodd" fill="#CA4339" d="M37.323,53.886c0.186,0.045,0.684-0.128,0.594,0.115
				c0.672-0.234,0.557,0.084,1.125-0.07c0.26-0.076,0.526-0.147,0.787-0.212l0.378-0.089l0.174-0.036l0.077-0.015
				c0.017-0.004,0.078-0.014,0.033-0.011c-0.021,0-0.045-0.005-0.066-0.014l-0.017-0.007l-0.005-0.002l0.007-0.07
				c0.005-0.046,0.011-0.101,0.019-0.142L40.536,53l0.109-0.332l0.026-0.083l0.007-0.021l-0.147-0.005
				c-0.004,0.027-0.128-0.262-0.128-0.137v0.006c0,0.008,0.143,0.015,0.137,0.022c-0.024,0.035,0.034,0.015-0.023,0.042
				c-0.121,0.061-0.215,0.097-0.348,0.107c-0.181,0.041-0.394,0.09-0.572,0.114c0.009,0.007,0.04,0.144,0.051,0.252
				c0.029,0.245,0.064,0.48,0.089,0.702c-0.26,1.256-0.115,2.345-0.346,4.14c-0.025,1.366-0.039,2.233-0.233,3.618
				c0.179,0.74-0.012,1.713-0.083,2.687c-0.065,0.919-0.072,1.931-0.301,2.845c-0.092,1.447-0.058,2.688-0.361,4.378
				c0.056,0.781,0.084,1.424-0.198,2.278c-0.03,0.363-0.063,0.887-0.141,1.367c-0.04,0.238-0.09,0.469-0.155,0.646
				c-0.033,0.086-0.068,0.155-0.1,0.198c0-0.006,0.002-0.012,0.006-0.016l0.008-0.006c-0.002,0,0.006-0.004-0.001,0.001l0.026,0.048
				c0.033,0.064,0.066,0.127,0.098,0.187l0.013,0.022l-0.282,0.006l-0.283,0.002v0.002c0-0.517,0.48,0.098,0.408,0.098H37.81
				l-0.01-0.176l-0.02-0.084c-0.175,0.067-0.217,0.088-0.269,0.162c-0.044,0.08-0.112,0.128-0.358,0.139
				c-0.045,0.174-0.438-0.106-0.512,0.157c-0.205-0.094-0.287-0.146-0.409-0.172c-0.121-0.018-0.278-0.034-0.613-0.107
				c-0.543,0.021-1.039-0.167-1.526-0.44c-0.487-0.28-0.98-0.648-1.531-1.144c-0.148-0.157-0.273-0.36-0.405-0.552
				c-0.088-0.188-0.22-0.387-0.264-0.604c-0.138-0.426-0.146-0.894-0.062-1.355c0.156-0.931,0.589-1.832,0.97-2.771
				c0.193-0.469,0.382-0.95,0.525-1.454c0.078-0.247,0.133-0.513,0.187-0.779c0.029-0.134,0.035-0.257,0.053-0.386l0.023-0.191
				c0.01-0.088,0.004-0.141,0.008-0.213c0.029-1.091-0.257-2.131-0.549-3.13c-0.295-1.003-0.629-1.983-0.861-2.962
				c-0.234-0.964-0.364-1.979-0.265-2.848c0.089-0.984,0.497-1.712,1.112-2.251c0.324-0.249,0.68-0.454,1.065-0.599
				c0.39-0.14,0.793-0.237,1.2-0.293c-0.013-0.119,0.314-0.137,0.605-0.139c0.296,0,0.54,0.011,0.436-0.171
				c0.262-0.031,0.143-0.056-0.024-0.09c-0.175-0.034-0.408-0.062-0.327-0.148c-0.379-0.003-0.376-0.195-0.574-0.282
				c-0.514-0.04-0.948-0.087-1.431-0.065c-0.479,0.019-1.022,0.118-1.663,0.522c-0.572,0.423-0.991,0.938-1.246,1.447
				c-0.064,0.127-0.133,0.25-0.188,0.375c-0.043,0.126-0.084,0.25-0.125,0.372l-0.059,0.181l-0.029,0.09l-0.014,0.045l-0.018,0.091
				c-0.02,0.099-0.037,0.195-0.057,0.291c-0.018,0.095-0.036,0.19-0.054,0.283l-0.032,0.351c-0.021,0.235-0.043,0.479-0.033,0.687
				c-0.006,0.438,0.026,0.879,0.078,1.359c0.044,0.407,0.174,0.398,0.267,0.594c-0.11,0.449,0.405,1.689,0.384,2.156
				c0.241,0.5,0.377,0.939,0.424,1.457c0.32,0.171,0.301,0.783,0.298,1.213c0.138-0.047,0.231,0.145,0.245,0.478
				c0.043,0.253,0.033,0.46,0.058,0.665c-0.013,0.182,0.008,0.387-0.017,0.518c-0.011,0.111-0.021,0.221-0.031,0.328
				c-0.012,0.105-0.031,0.16-0.043,0.242c-0.019,0.141-0.062,0.319-0.107,0.502c-0.09,0.361-0.219,0.746-0.398,1.2
				c-0.178,0.454-0.422,0.975-0.709,1.669c-0.102,0.468-0.385,1.264-0.326,1.779c-0.055,0.031-0.086,0.14-0.105,0.291
				c-0.018,0.151-0.039,0.34-0.007,0.559c0.024,0.217,0.05,0.445,0.12,0.657c0.061,0.214,0.113,0.414,0.176,0.562l0.195,0.382
				l0.023,0.048l0.058,0.086l0.043,0.061l0.085,0.122c0.066,0.088,0.097,0.146,0.191,0.257l0.262,0.309
				c0.35,0.387,0.696,0.67,1.081,0.951c0.77,0.531,1.612,0.935,2.583,1.197c0.551,0.063,1.166,0.109,1.855,0.014
				c0.342-0.043,0.713-0.148,1.083-0.324c0.091-0.037,0.185-0.109,0.274-0.165l0.136-0.091l0.067-0.047l0.004-0.004l0.086-0.074
				l0.004-0.005l0.009-0.009l0.018-0.021c0.009,0.011,0.281-0.358,0.272-0.393c0.055-0.105,0.088-0.194,0.121-0.28
				c0.232-0.666,0.318-1.219,0.408-1.781c0.083-0.555,0.134-1.085,0.152-1.573c0.346-0.769,0.199-1.361,0.265-1.919
				c0.045-0.381,0.226-0.742,0.267-1.121c0.029-0.27-0.039-0.678-0.011-0.983c0.054-0.597,0.126-1.116,0.171-1.726
				c0.064-0.91,0.143-1.871,0.148-2.311c0.004-0.146-0.053-0.154-0.055-0.204c-0.005-0.168,0.129-0.366,0.129-0.366
				c0.049-0.706,0.022-1.297,0.156-1.917c-0.035-1.185,0.123-2.355,0.104-3.86c0.251-1.819,0.021-3.029,0.225-4.42
				c-0.026-0.41-0.163-0.566-0.116-1.182c-0.051-0.12-0.072-0.204-0.075-0.275c-0.014-0.083,0.027-0.108-0.022-0.281
				c-0.025-0.048-0.071-0.098-0.121-0.13l-0.037-0.022l-0.005,0.022l-0.003,0.023h-0.125h-0.275v-0.017l0.174-0.024l0.079-0.018
				l0.004-0.032c-0.029-0.018-0.029-0.04-0.096-0.051c-0.061-0.012-0.121-0.023-0.208-0.023c-0.066,0-0.125,0.006-0.208,0.019
				c-0.388,0.202-1.286,0.312-1.698,0.54c-0.733,0.159-1.361,0.354-1.642,0.611c-0.03,0.072,0.023,0.159-0.158,0.203
				C36.243,53.717,37.378,53.52,37.323,53.886z M40.878,59.195c-0.051,0.092-0.086-0.153-0.059-0.203
				C40.871,58.9,40.906,59.146,40.878,59.195z"/>
		</g>
	</g>
	<g>
		<path fill="#FFFFFF" d="M126.151,53.305c0,0,4.199-0.15,4.949,3.15c0.75,3.301-1.949,7.05-1.801,9.9
			c0.15,2.85,2.701,5.4,1.352,7.65c-1.352,2.25-4.801,3.299-6.15,2.25c-1.352-1.051-3-23.701-2.549-23.851
			C122.401,52.255,126.151,53.305,126.151,53.305z"/>
	</g>
	<g>
		<g>
			<path fill-rule="evenodd" clip-rule="evenodd" fill="#CA4339" d="M125.735,52.389c-0.143-0.135-0.674-0.229-0.473-0.397
				c-0.727-0.124-0.463-0.348-1.072-0.478c-0.287-0.052-0.584-0.106-0.877-0.16l-0.465-0.071c-0.082-0.01-0.156-0.022-0.248-0.03
				l-0.133-0.013c-0.053-0.003-0.061-0.008-0.178-0.012c-0.092-0.003-0.184-0.002-0.277,0.003l-0.133,0.01l-0.051-0.036
				l-0.053-0.038h-0.014h-0.002h-0.178h-0.021l-0.047,0.092c-0.059,0.025-0.121,0.094-0.18,0.133
				c-0.121,0.076-0.234,0.198-0.318,0.312c-0.086,0.107-0.156,0.275-0.145,0.256c-0.035,0.087-0.062,0.181-0.082,0.271l-0.018,0.119
				c-0.027,0.263-0.018,0.398-0.014,0.553c0.016,0.296,0.047,0.556,0.086,0.799c-0.205,1.342,0.051,2.424,0.045,4.257
				c0.152,1.375,0.266,2.242,0.293,3.652c0.295,0.709,0.27,1.705,0.377,2.686c0.102,0.924,0.289,1.926,0.256,2.877
				c0.219,1.453,0.523,2.663,0.693,4.404c0.271,0.754,0.484,1.361,0.523,2.293c0.102,0.367,0.273,0.887,0.449,1.395
				c0.088,0.254,0.176,0.504,0.27,0.74c0.049,0.121,0.1,0.24,0.16,0.361c0.045,0.082,0.125,0.193,0.152,0.229l0.035,0.049
				c0.035,0.033,0.07,0.064,0.104,0.095c0.311,0.26,0.459,0.243,0.588,0.237c0.133,0.002,0.252-0.018,0.576,0.088
				c0.096-0.15,0.572,0.193,0.662-0.104c0.246,0.092,0.359,0.107,0.508,0.096c0.148-0.006,0.33-0.053,0.719-0.148
				c0.535-0.306,1.025-0.536,1.553-0.84c0.52-0.307,1.08-0.695,1.529-1.374c0.168-0.183,0.287-0.378,0.422-0.571
				c0.07-0.115,0.113-0.223,0.172-0.336c0.061-0.109,0.102-0.227,0.133-0.35c0.158-0.479,0.17-1.002,0.086-1.498
				c-0.156-1-0.584-1.923-0.936-2.86c-0.178-0.47-0.348-0.942-0.469-1.427c-0.07-0.242-0.109-0.48-0.15-0.72
				c-0.023-0.117-0.025-0.253-0.039-0.379l-0.016-0.192c-0.004-0.041,0.002-0.117,0.002-0.174c0.006-0.98,0.312-1.967,0.648-2.936
				c0.656-1.942,1.576-3.873,1.49-6.121c-0.014-0.293-0.053-0.475-0.092-0.789c-0.08-0.268-0.127-0.547-0.246-0.804
				c-0.203-0.531-0.549-0.995-0.938-1.396c-0.41-0.377-0.865-0.685-1.342-0.91c-0.477-0.22-0.965-0.382-1.451-0.495
				c-0.035,0.118-0.4,0.008-0.742-0.049s-0.668-0.067-0.537,0.117c-0.334,0.03-0.182,0.053,0.027,0.091
				c0.199,0.041,0.443,0.112,0.344,0.184c0.398,0.074,0.346,0.265,0.508,0.403c0.469,0.186,0.799,0.434,1.113,0.697
				c0.318,0.259,0.615,0.551,0.957,0.899c0.346,0.299,0.566,0.605,0.701,0.919c0.033,0.078,0.072,0.151,0.102,0.226
				c0.021,0.081,0.041,0.159,0.062,0.236c0.018,0.061,0.033,0.12,0.051,0.179c0.014,0.099,0.027,0.197,0.039,0.293
				c0.014,0.097,0.027,0.192,0.039,0.287l-0.002,0.218c-0.004,0.143,0.006,0.276-0.02,0.45c-0.025,0.327-0.092,0.672-0.189,1.054
				c-0.107,0.325,0.027,0.364,0.027,0.556c-0.26,0.291-0.479,1.491-0.791,1.851c-0.1,0.532-0.266,0.957-0.537,1.444
				c0.156,0.341-0.227,0.863-0.441,1.356c0.148,0.023,0.115,0.254,0.002,0.672c-0.082,0.305-0.111,0.627-0.15,0.913
				c-0.006,0.313-0.035,0.576,0.004,0.89c0.014,0.111,0.025,0.221,0.035,0.328c0.014,0.109,0.049,0.262,0.072,0.389
				c0.051,0.278,0.117,0.505,0.188,0.733c0.264,0.916,0.711,1.812,1.09,3.033c0.209,0.366,0.305,0.949,0.416,1.208
				c-0.039,0.031-0.07,0.088-0.084,0.164c-0.02,0.073-0.008,0.174-0.031,0.26c-0.014,0.09-0.012,0.191-0.049,0.27
				c-0.027,0.082-0.043,0.162-0.1,0.21c-0.025,0.052-0.141,0.104-0.162,0.157l-0.1,0.021v0.001c0-0.024,0.057,0.055,0.127-0.055
				l0.045,0.002l0.02,0.004l0.006,0.008l-0.004,0.016l-0.039,0.062l-0.08,0.125c-0.051,0.072-0.115,0.189-0.152,0.226l-0.119,0.144
				c-0.062,0.096-0.203,0.215-0.299,0.324c-0.115,0.105-0.236,0.209-0.359,0.31c-0.506,0.388-1.119,0.703-1.779,0.864
				c-0.34,0.156-0.746,0.254-1.117,0.252c-0.191,0.006-0.354-0.033-0.49-0.074c-0.041-0.006-0.055-0.029-0.084-0.04l-0.043,0.297
				l-0.021,0.308h-0.66v-0.551c0-0.064,0.428,0.047,0.41,0.031l-0.186-0.025l-0.225-0.02V75.58c0-0.007,0.313-0.037,0.327-0.027
				c0.016,0.012,0.206,0.024,0.216,0.039c0.012,0.016,0.111,0.031,0.117,0.049l0.037-0.017c-0.012-0.017-0.01-0.058-0.029-0.102
				c-0.172-0.382-0.306-0.938-0.437-1.436c-0.131-0.509-0.25-1.009-0.383-1.466c0.098-0.814-0.199-1.33-0.281-1.879
				c-0.055-0.375,0.032-0.766-0.019-1.139c-0.037-0.264-0.197-0.641-0.238-0.941c-0.072-0.592-0.133-1.107-0.205-1.709
				c-0.125-0.896-0.232-1.85-0.305-2.281c-0.023-0.143-0.082-0.141-0.092-0.189c-0.035-0.164,0.061-0.382,0.061-0.382
				c-0.078-0.699-0.205-1.274-0.178-1.905c-0.229-1.158-0.252-2.334-0.471-3.816c0.012-1.824-0.35-3.001-0.227-4.386
				c-0.039-0.396-0.199-0.559-0.123-1.138c-0.041-0.114-0.049-0.189-0.041-0.245c0.004-0.043,0.055-0.112,0.047-0.038
				c-0.016,0.039-0.053,0.079-0.094,0.101c-0.01,0.006-0.02,0.01-0.029,0.015l-0.01,0.003l-0.002,0.233
				c-0.092,0.022-0.023,0.244-0.045,0.244l0,0h0.002l0.002-0.231l0.012-0.111l0.045-0.042c0.031,0.011,0.078-0.013,0.092,0.007
				c0.021,0.018,0.041,0.017,0.064,0.023c0.045,0.012,0.105,0.016,0.174,0.021c0.381-0.106,1.248,0.185,1.705,0.172
				c0.717,0.194,1.354,0.338,1.727,0.259c0.062-0.047,0.061-0.149,0.24-0.095C126.593,53.087,125.505,52.674,125.735,52.389z
				 M122.548,59.143c-0.037,0.098-0.107-0.141-0.086-0.193C122.499,58.852,122.567,59.09,122.548,59.143z"/>
		</g>
	</g>
	<g>
		<path fill="#FFFFFF" d="M37.801,33.955c-0.45,9.75-0.301,31.649,0.45,51.75c0.75,20.1,23.999,30.45,30.449,30.9
			c6.451,0.449,19.051,0.6,24.451,0.449s29.549-8.25,31.051-30.749c1.498-22.5-1.502-41.101-2.701-51.9
			c-1.201-10.8-33.9-14.25-33.9-14.25L70.05,20.305C70.05,20.305,38.251,24.206,37.801,33.955z"/>
	</g>
	<g>
		<ellipse fill="#CA4339" cx="36.61" cy="66.242" rx="1.266" ry="3.656"/>
	</g>
	<g>
		<ellipse fill="#CA4339" cx="125.71" cy="66.242" rx="1.266" ry="3.656"/>
	</g>
	<g>
		<g>
			<path fill-rule="evenodd" clip-rule="evenodd" fill="#CA4339" d="M39.12,33.519c-0.193,0.197-0.188-0.297,0.002-0.826
				c0.172-0.531,0.584-1.06,0.492-1.151c0.574-0.809,1.371-1.532,2.271-2.156c1.099-0.729,1.993-1.231,2.9-1.716
				c0.915-0.476,1.861-0.919,3.171-1.377c2.697-1.095,5.112-1.961,8.227-2.756c1.873-0.711,4.928-1.375,7.566-1.933
				c1.984-0.472,4.131-0.906,6.361-1.26l-0.057,0.004c3.301-0.103,6.77-0.09,10.17-0.195c2.553-0.02,5.033,0.017,7.378,0.017h-0.024
				c3.59,1,6.95,0.729,10.111,1.232c2.809,0.485,5.215,0.8,8.215,1.627c0.969,0.155,2.422,0.561,3.842,1.055
				c1.422,0.493,2.809,1.034,3.711,1.309c1.721,0.821,3.26,1.673,4.629,2.668c1.357,0.998,2.58,2.14,3.381,3.632
				c0.098,0.187,0.184,0.379,0.273,0.571c0.072,0.202,0.152,0.391,0.215,0.605c0.053,0.208,0.133,0.458,0.156,0.631l0.051,0.284
				l0.047,0.315c0.104,0.762,0.209,1.528,0.316,2.308c0.209,1.559,0.42,3.178,0.619,4.923c0.268,1.556,0.512,3.156,0.742,4.857
				c0.111,0.852,0.227,1.728,0.346,2.635c0.104,0.91,0.188,1.855,0.277,2.84c0.129,1.49,0.295,2.774,0.424,4.071
				c0.111,1.298,0.207,2.608,0.246,4.139c0.105,0.867,0.221,1.799,0.295,2.78c0.064,0.982,0.117,2.013,0.17,3.075
				c0.043,1.062,0.088,2.154,0.137,3.262c0.027,0.553,0.031,1.111,0.027,1.674c-0.002,0.562-0.002,1.124-0.004,1.686
				c0.035,1.816,0.086,3.705,0.084,5.631c-0.059,1.912-0.121,3.871-0.182,5.869c-0.016,0.5-0.033,1.002-0.049,1.505l-0.014,0.378
				l-0.008,0.222l-0.016,0.198l-0.07,0.791c-0.064,1.062-0.25,2.119-0.416,3.188c-0.414,2.122-1.031,4.236-1.875,6.279
				c-0.836,2.008-1.781,3.742-2.922,5.467c-1.148,1.717-2.523,3.42-4.422,5.168c-1.313,1.389-3.106,2.826-4.074,3.735
				c-1.908,1.222-4.095,2.591-6.402,3.775c-1.148,0.604-2.33,1.151-3.49,1.657c-1.168,0.49-2.323,0.927-3.432,1.277
				c-0.818,0.251-1.317,0.347-1.746,0.4c-0.422,0.062-0.785,0.074-1.33,0.158c-0.291,0.058-0.572,0.123-0.91,0.181
				c-0.348,0.053-0.746,0.114-1.021,0.132l-0.23,0.021l-0.299,0.012c-0.156,0.004-0.314,0.01-0.473,0.013
				c-0.318,0.007-0.64,0.015-0.96,0.021c-1.279,0.021-2.547,0.01-3.564-0.078c-1.962,0.059-4.373,0.02-6.267,0.092
				c-1.812,0.006-1.878-0.203-3.517-0.226c-1.75,0.033-3.771,0.066-5.691-0.042c-0.965-0.045-1.916-0.004-2.812-0.004
				c-0.225,0-0.445,0-0.662,0c-0.107,0-0.215,0-0.321,0.002l-0.08-0.002h-0.021h-0.054h-0.048l-0.189-0.088
				c-0.514-0.011-0.957-0.097-1.389-0.117c-1.488-0.38-2.408-0.719-3.248-0.98c-0.832-0.27-1.556-0.515-2.471-0.901
				c-1.197-0.571-1.979-0.96-2.717-1.33c-0.371-0.181-0.722-0.375-1.102-0.59c-0.383-0.211-0.788-0.46-1.254-0.771
				c-1.837-0.954-3.313-1.934-4.742-2.974c-1.424-1.049-2.791-2.174-4.367-3.541c-2.023-2.02-3.588-3.993-4.934-6.037
				c-1.34-2.05-2.469-4.175-3.441-6.639c-0.311-1.084-0.732-2.492-1.005-3.91c-0.07-0.354-0.14-0.707-0.208-1.052
				c-0.062-0.349-0.099-0.704-0.146-1.037c-0.045-0.335-0.088-0.657-0.127-0.96c-0.02-0.285-0.038-0.553-0.055-0.795
				c-0.014-0.33-0.027-0.672-0.041-1.021l-0.336-0.066l-0.336-0.107v-0.133V84.85c0-0.18,0-0.361,0-0.545
				c0-0.735,0.328-1.5,0.326-2.283c-0.014-1.564,0.139-3.201,0.125-4.812c-0.055-3.219-0.024-6.33-0.062-8.547
				c-0.037-1.617,0.273-1.2,0.305-2.379c-0.207-0.45,0.012-2.376,0.112-2.481c-0.168-2.051-0.11-4.619-0.061-7.239
				c0.057-2.621,0.176-5.295,0.04-7.563c0.229-1.482,0.321-6.547,0.362-7.989c0.46-2.118,0.586-7.255,1.256-7.478
				c0.098,1.517,0.344,2.392,0.332,4.384c0.349,0.919-0.057,2.656,0.269,3.821c-0.072,1.353-0.068,2.69-0.1,4.034
				c0.134,1.357-0.012,4.05,0.258,4.75c-0.049,1.623-0.186,3.091,0.012,4.081c-0.053,1.951-0.18,4.083,0.06,5.609
				c-0.165,1.354-0.107,4.984-0.017,6.57c-0.089,1.113-0.144,2.613-0.131,4.271c0.008,1.658,0.018,3.477,0.026,5.229
				c-0.005,1.725-0.05,3.393-0.069,4.927c-0.01,0.768-0.013,1.502,0,2.193c0.006,0.346,0.016,0.68,0.03,1.002
				c0.009,0.161,0.018,0.319,0.026,0.475c0.005,0.077,0.011,0.154,0.016,0.23l0.004,0.057l-0.059,0.028l-0.061,0.007v0.004
				c0,0.01,0-0.084,0-0.044v0.002l0.062,0.015l0.043,0.111c-0.039,0.428-0.048,1.033-0.057,1.742
				c0.021,0.33,0.053,0.687,0.077,1.057c0.022,0.373,0.059,0.765,0.137,1.166c0.201,1.619,0.768,3.299,1.29,4.507
				c0.396,1.318,0.998,2.828,1.871,4.407c1.123,1.861,2.28,3.212,3.424,4.402c1.086,1.14,0.045,0.537,1.493,1.881
				c1.865,1.914,3.579,3.27,5.18,4.449c1.609,1.173,3.133,2.15,4.811,3.137c2.422,1.146,4.061,1.904,6.166,2.633
				c1.116,0.446,2.268,0.836,3.449,1.109c1.176,0.283,2.414,0.281,3.648,0.372c1.234,0.07,2.471,0.14,3.711,0.176
				c1.24,0.018,2.48,0.021,3.721,0.007c2.987,0.262,5.455,0.094,9.162,0.203c1.433-0.064,2.605-0.078,3.801-0.082
				c0.596-0.006,1.209-0.005,1.842-0.031c0.652-0.033,1.297-0.168,2.039-0.355c0.434-0.019,1.254-0.188,2.025-0.396
				c0.777-0.195,1.51-0.424,1.817-0.431c1.36-0.562,2.672-1.069,3.983-1.647c1.309-0.578,2.624-1.223,3.916-2.105
				c1.764-0.99,3.461-2.1,5.066-3.333c0.587-0.492,1.26-1.101,1.889-1.673c0.605-0.6,1.175-1.157,1.482-1.614
				c1.549-1.397,3.105-3.324,4.354-5.394c1.266-2.062,2.201-4.257,2.914-6.069c0.863-2.89,1.299-6.021,1.322-9.177
				c0.037-1.582,0.074-3.168,0.111-4.736c0.01-0.784,0.053-1.565,0.029-2.338c-0.018-0.773-0.037-1.539-0.057-2.298l0.059-3.028
				c0.016-1.01,0.061-2.019,0.025-3.029c0.025-2.486-0.344-2.651-0.164-4.598c-0.098-2.451-0.102-2.268-0.252-4.598
				c-0.191-1.418-0.332-2.963-0.506-4.664c-0.186-1.7-0.354-3.559-0.5-5.613c-0.611-4.796-1.244-9.768-1.891-14.831
				c-0.168-2.298-1.652-3.903-3.591-5.342c-0.735-0.371-1.529-1.249-2.194-1.262c-1.163-0.75-1.381-0.884-2.256-1.095
				c-0.746-0.292-1.064-0.435-1.432-0.614c-0.371-0.174-0.787-0.387-1.763-0.75c-1.392-0.523-1.788-0.421-3.046-0.803
				c-3.342-1.022-6.58-1.773-9.748-2.396c-3.164-0.615-6.285-1.113-9.381-1.468c0.039,0.002,0.079,0.004,0.121,0.006
				c-5.203,0.048-10.442,0.109-16.127,0.204c-0.463,0.022-0.928,0.045-1.424,0.068c0.045-0.002,0.088-0.005,0.136-0.009
				c-4.719,0.832-9.68,1.89-14.915,3.318c-2.613,0.728-5.311,1.554-8,2.639c-1.342,0.546-2.683,1.158-3.95,1.893
				c-1.253,0.736-2.478,1.603-3.289,2.656c-0.06-0.074-0.352,0.264-0.56,0.706C39.258,32.692,39.157,33.219,39.12,33.519z"/>
		</g>
	</g>
	<g>
		<defs>
			<path id="SVGID_3_" d="M37.801,33.505c-0.45,9.75-0.301,31.649,0.45,51.75c0.75,20.1,23.999,30.449,30.449,30.899
				c6.451,0.45,19.051,0.601,24.451,0.45s29.549-8.25,31.051-30.75c1.498-22.5-1.502-41.1-2.701-51.9
				c-1.201-10.8-33.9-14.25-33.9-14.25L70.05,19.855C70.05,19.855,38.251,23.755,37.801,33.505z"/>
		</defs>
		<clipPath id="SVGID_4_">
			<use xlink:href="#SVGID_3_"  overflow="visible"/>
		</clipPath>
		<g opacity="0.07" clip-path="url(#SVGID_4_)">
			<path fill="#CA4339" d="M29.775,86.381c0.226,1.125,9.899,23.624,9.788,24.074C39.45,110.904,84,122.154,84,122.154
				l34.876-10.912l4.725-17.888l2.361-16.874c0,0-0.787-22.782-2.137-21.713s-5.062,22.275-5.062,22.275s-3.15,14.962-12.488,15.299
				c-9.337,0.338-19.912-7.086-19.912-7.086s-5.006-1.406-9.899-0.338s-10.181,7.818-17.774,6.749
				c-7.594-1.067-12.319-5.681-14.4-11.699c-2.082-6.019-5.85-24.3-5.85-24.3L29.775,86.381z"/>
		</g>
	</g>
	<g>
		<path fill="#FFFFFF" d="M76.962,81.829c6.74,0.497,4.822,7.878,0.247,11.034c-4.575,3.155-11.629,4.002-17.842,2.618
			s-11.392-8.427-10.546-8.52s8.02,5.928,16.372,0.048C68.844,84.902,70.222,81.334,76.962,81.829z"/>
	</g>
	<g>
		<path fill="#FFFFFF" d="M86.215,81.146c-6.757,0.18-5.188,7.643-0.767,11.01c4.423,3.369,11.428,4.547,17.699,3.455
			c6.271-1.09,11.775-7.881,10.936-8.014c-0.842-0.131-8.289,5.545-16.356-0.722C94.179,84.598,92.97,80.969,86.215,81.146z"/>
	</g>
	<g>
		<g>
			<path fill-rule="evenodd" clip-rule="evenodd" fill="#CA4339" stroke="#CA4339" stroke-miterlimit="10" d="M76.142,81.28
				c-0.226-0.087-0.951-0.028-0.748-0.177c-0.985,0.074-0.732-0.121-1.574-0.012c-0.389,0.045-0.781,0.169-1.174,0.251
				c-0.387,0.124-0.78,0.233-1.144,0.397c-0.743,0.296-1.389,0.707-1.91,1.094c-0.79,0.434-1.424,0.946-2.087,1.503
				c-0.664,0.554-1.354,1.175-2.312,1.739c-0.147,0.098-0.289,0.192-0.389,0.258l-0.059,0.038c-1.191,0.854-2.104,1.373-3.571,1.845
				c-0.797,0.443-2.026,0.633-3.23,0.686c-1.136,0.059-2.409-0.028-3.521-0.403c-0.885-0.204-1.695-0.454-2.527-0.784
				c-0.416-0.166-0.836-0.356-1.276-0.574c-0.222-0.111-0.448-0.229-0.684-0.348c-0.124-0.062-0.249-0.125-0.377-0.189
				c-0.063-0.033-0.136-0.065-0.216-0.1c-0.051-0.02-0.051-0.027-0.143-0.055c-0.075-0.025-0.153,0.095-0.231,0.08
				c-0.052-0.004-0.068,0.139-0.104,0.139h-0.012h-0.095h-0.005h-0.008l-0.018-0.134l-0.035-0.061
				c-0.046,0.012-0.092-0.009-0.135,0.011c-0.099,0.047-0.212,0.119-0.263,0.204c-0.03,0.044-0.058,0.086-0.075,0.131
				c-0.012,0.035-0.021,0.066-0.029,0.104c-0.018,0.082-0.014,0.114-0.014,0.165c0.004,0.095,0.018,0.152,0.033,0.207
				c0.061,0.204,0.133,0.32,0.203,0.445c0.143,0.238,0.289,0.438,0.438,0.644c0.298,0.399,0.604,0.812,0.973,1.306
				c0.338,0.367,0.85,0.859,1.352,1.312c0.5,0.454,0.99,0.875,1.252,1.154c0.562,0.537,0.479,0.225,1.055,0.74
				c0.139-0.029,0.486,0.475,0.683,0.381c0.424,0.438,0.379,0.38,1.224,0.885c0.691,0.282,1.32,0.586,2.037,0.877
				c0.714,0.286,1.528,0.557,2.537,0.666c2.369,0.479,4.959,0.645,7.602,0.446c2.635-0.224,5.348-0.802,7.824-1.991
				c0.309-0.15,0.611-0.318,0.918-0.479c0.303-0.164,0.578-0.352,0.869-0.525c0.59-0.377,1.123-0.811,1.615-1.292
				c0.98-0.963,1.779-2.101,2.312-3.349c0.519-1.24,0.812-2.641,0.455-3.994c-0.181-0.668-0.539-1.297-1.032-1.777
				c-0.491-0.483-1.093-0.814-1.697-1.028c-0.021,0.032-0.146,0.009-0.319-0.038c-0.172-0.053-0.398-0.117-0.623-0.162
				c-0.227-0.056-0.422-0.082-0.547-0.082c-0.127-0.002-0.184,0.021-0.113,0.09c-0.779-0.043,0.695,0.135,0.452,0.228
				c0.516,0.12,0.448,0.239,0.655,0.377c0.596,0.245,1.012,0.552,1.363,0.923c0.35,0.377,0.632,0.818,0.85,1.461
				c0.215,0.609,0.238,1.202,0.19,1.731c-0.052,0.532-0.176,1.008-0.329,1.45c-0.312,0.883-0.738,1.65-1.407,2.482
				c-0.298,0.344-0.243,0.412-0.38,0.618c-0.204,0.128-0.547,0.501-0.939,0.827c-0.387,0.329-0.818,0.644-1.06,0.718
				c-0.284,0.204-0.561,0.411-0.829,0.548c-0.271,0.136-0.537,0.266-0.843,0.377c-0.229,0.291-0.964,0.492-1.543,0.629
				c0.048,0.081-0.193,0.222-0.662,0.336c-1.374,0.41-2.353,0.635-3.417,0.818c-1.062,0.182-2.221,0.339-3.977,0.306
				c-0.566,0.041-1.469-0.021-1.963,0c-0.15-0.124-1.349-0.159-1.91-0.294c-0.252-0.037-0.502-0.072-0.751-0.109
				c-0.247-0.046-0.493-0.091-0.737-0.136l-0.367-0.068c-0.102-0.016-0.243-0.053-0.363-0.077c-0.22-0.057-0.452-0.116-0.683-0.189
				c-0.92-0.285-1.825-0.7-2.729-1.24c-1.036-0.504-2.201-1.316-3.273-2.256c-1.073-0.938-2.07-1.992-2.824-2.926
				c-0.115-0.223-0.219-0.42-0.314-0.607c-0.047-0.089-0.09-0.174-0.124-0.247c-0.034-0.067-0.059-0.149-0.06-0.13
				c-0.002-0.002,0,0.014-0.002,0.025l-0.01,0.059c-0.008,0.043-0.056,0.16-0.16,0.235c-0.059,0.04-0.104,0.159-0.143,0.169
				l-0.031,0.107h-0.018l-0.453-0.134l-0.531-0.186v0.319h0.91l0.072-0.036c0.008,0.007-0.008,0.036-0.005,0.036h0.109
				c0.153,0,0.319,0.047,0.479,0.126c0.439,0.222,0.847,0.494,1.305,0.707c0.324,0.154,0.84,0.276,1.22,0.427
				c0.745,0.285,1.408,0.51,2.204,0.695c1.19,0.291,2.49,0.38,3.079,0.36c0.195-0.007,0.201-0.047,0.267-0.051
				c0.111-0.008,0.236,0.006,0.334,0.023c0.098,0.012,0.172,0.027,0.172,0.027c0.951-0.057,1.725-0.224,2.555-0.382
				c1.502-0.479,2.99-1.075,4.592-2.263c0.055-0.034,0.11-0.067,0.159-0.099l-0.021,0.015c1.032-0.562,1.77-1.207,2.438-1.792
				c0.667-0.587,1.276-1.136,2.017-1.591c0.202-0.161,0.336-0.285,0.505-0.411c0.167-0.131,0.364-0.277,0.718-0.428
				c0.236-0.195,0.348-0.224,0.485-0.237c0.138-0.015,0.294-0.036,0.649-0.177c0.43-0.26,1.57-0.49,2.14-0.597
				c0.956-0.101,1.803-0.085,2.249-0.178c0.064-0.038,0.031-0.104,0.273-0.093C77.462,81.63,75.944,81.498,76.142,81.28z
				 M64.333,87.871c-0.124,0.038,0.135-0.152,0.201-0.174C64.657,87.656,64.401,87.853,64.333,87.871z"/>
		</g>
	</g>
	<g>
		<g>
			<path fill-rule="evenodd" clip-rule="evenodd" fill="#CA4339" stroke="#CA4339" stroke-miterlimit="10" d="M87.036,81.67
				c0.216,0.048,0.881,0.08,0.682,0.207c0.896,0.031,0.635,0.199,1.357,0.309c1.355,0.184,2.659,0.826,3.642,1.429
				c0.615,0.558,1.167,1.06,1.784,1.618c0.641,0.574,1.348,1.244,2.357,2.008c0.168,0.11,0.332,0.217,0.446,0.291
				c-0.028-0.02-0.042-0.029-0.056-0.039c1.307,0.939,2.293,1.516,3.877,2.221c0.984,0.225,2.281,0.643,3.639,0.744
				c1.276,0.1,2.658-0.059,3.928-0.229c0.972-0.222,1.836-0.528,2.715-0.891c0.439-0.182,0.881-0.382,1.342-0.593
				c0.227-0.104,0.461-0.211,0.701-0.32c0.116-0.051,0.239-0.107,0.354-0.15c0.06-0.025,0.114-0.046,0.164-0.062
				c0.016-0.005,0.074-0.027,0.053-0.018c-0.008,0.003-0.02,0.001-0.029-0.005c-0.006,0.01,0.004-0.025,0.012-0.064l0.021-0.104
				l0.047-0.205l0.012-0.052l-0.578-0.004c0.021,0.017-0.602-0.024-0.602-0.021v-0.002v-0.004v-0.008
				c0-0.01,0.584-0.021,0.592-0.032c-0.004-0.003,0.303-0.019,0.285-0.003c-0.008,0.004,0.132,0.006,0.124,0.008
				c-0.016,0.007,0.042,0.012,0.026,0.014c-0.022-0.001-0.045,0.008-0.093,0.004c-0.04-0.007-0.094-0.01-0.154-0.021
				c-0.025-0.005-0.069-0.018-0.07-0.019c0.001-0.002,0.005,0.003,0.007,0.004c0.006,0.032-0.024,0.134-0.062,0.223
				c-0.078,0.186-0.188,0.38-0.312,0.569c-0.253,0.382-0.57,0.758-0.992,1.151c-0.307,0.363-0.754,0.876-1.22,1.335
				s-0.948,0.866-1.266,1.057c-0.628,0.406-0.312,0.414-0.956,0.803c-0.013,0.146-0.593,0.284-0.58,0.495
				c-0.564,0.198-0.475,0.204-1.312,0.663c-0.587,0.428-1.213,0.721-1.921,0.977c-0.713,0.252-1.504,0.46-2.488,0.65
				c-2.371,0.365-4.949,0.391-7.549,0.036c-2.592-0.375-5.23-1.126-7.559-2.456c-0.291-0.166-0.566-0.35-0.85-0.521
				c-0.279-0.178-0.549-0.391-0.822-0.584c-0.522-0.389-1.008-0.846-1.438-1.336c-0.861-0.984-1.532-2.125-1.932-3.322
				c-0.393-1.188-0.523-2.477-0.131-3.549c0.196-0.53,0.518-0.988,0.934-1.328c0.416-0.342,0.919-0.566,1.445-0.699
				c-0.006-0.044,0.098-0.082,0.25-0.117c0.154-0.041,0.354-0.066,0.542-0.078c0.181-0.023,0.38-0.029,0.507-0.047
				c0.125-0.02,0.178-0.052,0.096-0.107c0.777-0.086-0.713-0.027-0.478-0.135c-0.489,0.041-0.478-0.091-0.728-0.11
				c-0.654,0.07-1.195,0.172-1.754,0.423c-0.548,0.252-1.136,0.688-1.578,1.521c-0.361,0.811-0.438,1.57-0.428,2.225
				c0.016,0.659,0.125,1.229,0.264,1.758c0.14,0.529,0.316,1.018,0.537,1.502c0.217,0.486,0.469,0.977,0.798,1.49
				c0.276,0.441,0.364,0.402,0.556,0.601c0.112,0.241,0.466,0.696,0.885,1.106c0.42,0.416,0.866,0.794,1.105,1.024
				c0.311,0.183,0.561,0.369,0.854,0.554c0.293,0.184,0.576,0.391,0.876,0.602c0.404,0.022,1.05,0.521,1.624,0.829
				c0.025-0.101,0.299,0.017,0.771,0.216c1.428,0.592,2.474,0.852,3.599,1.074c1.127,0.221,2.34,0.42,4.19,0.566
				c0.598-0.023,1.553,0.037,2.067-0.047c0.175,0.131,1.435-0.006,2.042-0.029c0.27-0.031,0.535-0.061,0.801-0.091
				c0.264-0.04,0.525-0.083,0.785-0.123l0.393-0.063c0.152-0.023,0.258-0.051,0.391-0.075c0.279-0.062,0.545-0.125,0.807-0.2
				c1.051-0.301,2.062-0.729,3.081-1.259c2.136-1.305,4.902-3.474,6.378-5.634c0.196-0.193,0.359-0.391,0.5-0.602
				c0.068-0.104,0.133-0.211,0.189-0.331c0.057-0.124,0.113-0.237,0.146-0.456c0.004-0.023,0.006-0.064,0.006-0.103
				c0-0.037,0-0.07-0.013-0.133c-0.015-0.092-0.077-0.265-0.218-0.371c-0.076-0.061-0.141-0.089-0.204-0.106l-0.05-0.014
				l-0.023-0.006l-0.014,0.287l-0.086,0.283h-0.002l-0.018-0.287l-0.073-0.137c-0.088,0.013-0.194-0.035-0.284-0.006l-0.155,0.029
				c-0.179,0.086-0.353,0.151-0.525,0.234c-0.456,0.212-0.934,0.325-1.378,0.515c-0.314,0.137-0.758,0.383-1.123,0.519
				c-0.716,0.256-1.357,0.426-2.107,0.591c-1.125,0.259-2.346,0.307-2.897,0.306c-0.183-0.002-0.19,0.035-0.251,0.036
				c-0.105,0.001-0.224-0.021-0.314-0.043c-0.09-0.027-0.155-0.054-0.155-0.054c-0.886-0.074-1.632-0.167-2.375-0.453
				c-1.448-0.357-2.8-1.063-4.378-2.153c-0.05-0.039-0.1-0.077-0.143-0.112l-0.002-0.002l-0.018-0.012
				c-0.914-0.637-1.628-1.242-2.298-1.82c-0.671-0.592-1.29-1.137-1.96-1.728c-0.217-0.159-0.385-0.245-0.582-0.349
				c-0.193-0.105-0.404-0.24-0.743-0.451c-0.298-0.105-0.387-0.178-0.497-0.266c-0.109-0.088-0.23-0.211-0.605-0.365
				c-0.515-0.104-1.656-0.519-2.268-0.494c-0.971-0.175-1.844-0.167-2.287-0.047c-0.061,0.04-0.023,0.105-0.267,0.1
				C85.749,81.361,87.234,81.447,87.036,81.67z M98.831,87.349c0.086,0.091-0.197-0.048-0.243-0.099
				C98.505,87.156,98.783,87.302,98.831,87.349z"/>
		</g>
	</g>
	<g>
		<g>
			<path fill-rule="evenodd" clip-rule="evenodd" fill="#CA4339" stroke="#CA4339" stroke-miterlimit="10" d="M72.495,42.231
				c-0.053-0.081-0.293-0.125-0.182-0.24c-0.325-0.059-0.182-0.211-0.449-0.282c-0.497-0.116-1.029-0.275-1.461-0.31
				c-0.518-0.342-1.042-0.292-1.825-0.568c-0.62-0.094-1.005-0.175-1.622-0.343c-0.355,0.103-0.784-0.04-1.227-0.1
				c-0.418-0.053-0.877-0.075-1.287-0.216c-0.667-0.02-1.232,0.042-2.01-0.076c-0.358,0.069-0.646,0.147-1.053,0.053
				c-0.34,0.038-0.962,0.16-1.219,0.067c-0.264-0.061-0.174,0.134-0.437,0.074c-0.031,0.109-0.229-0.084-0.263,0.103
				c-0.205-0.117-0.18-0.081-0.514-0.062c-0.492,0.237-0.953,0.074-1.633,0.259c-1.646,0.137-3.496,0.366-5.322,0.743
				c-1.827,0.377-3.615,0.909-5.165,1.529c0.063,0.144-0.642,0.203-0.421,0.365c-0.217,0.163,0.246-0.06,0.227,0.074
				c0.17-0.059,0.218,0.062,0.324,0.093c0.466-0.052,0.799,0.07,1.332-0.049c0.963-0.335,1.4-0.495,2.154-0.645
				c0.162-0.025,0.141-0.112,0.215-0.167c0.191,0.067,0.706-0.154,0.92-0.093c0.216-0.109,0.412-0.15,0.651-0.137
				c0.071-0.197,0.359-0.113,0.575-0.094c-0.027-0.094,0.061-0.138,0.229-0.146c0.984-0.143,1.349-0.314,2.553-0.417
				c0.186-0.074,0.501-0.059,0.661-0.142c0.068,0.119,0.469,0.001,0.67,0.025c0.694-0.101,1.349-0.148,2.085-0.169
				c0.199-0.054,0.42-0.092,0.653-0.124c0.233-0.023,0.478-0.026,0.724-0.035c0.492-0.015,0.99-0.026,1.414-0.095
				c0.345,0.157,0.597,0.047,0.844,0.058c0.167,0.011,0.326,0.116,0.492,0.127c0.117,0.008,0.298-0.053,0.433-0.045
				c0.263,0.015,0.491,0.046,0.759,0.058c0.399,0.033,0.818,0.099,1.013,0.104c0.064,0.004,0.072-0.034,0.095-0.034
				c0.074-0.001,0.153,0.089,0.153,0.089c0.309,0.04,0.573,0.03,0.837,0.127c0.531-0.02,1.027,0.158,1.689,0.23
				c0.764,0.28,1.338,0.175,1.896,0.467c0.176,0.033,0.271-0.042,0.514,0.076c0.233-0.054,0.121,0.131,0.38,0.199
				c0.193-0.046,0.559,0.134,0.774,0.115c0.312,0.11,0.596,0.182,0.777,0.116c0.035-0.032,0.043-0.098,0.121-0.07
				C72.829,42.646,72.36,42.424,72.495,42.231z M67.783,41.724c-0.034-0.039,0.077-0.048,0.097-0.028
				C67.913,41.735,67.802,41.745,67.783,41.724z"/>
		</g>
	</g>
	<g>
		<g>
			<path fill-rule="evenodd" clip-rule="evenodd" fill="#CA4339" stroke="#CA4339" stroke-miterlimit="10" d="M113.444,42.231
				c-0.053-0.081-0.291-0.125-0.18-0.24c-0.326-0.059-0.184-0.211-0.451-0.282c-0.497-0.116-1.027-0.275-1.461-0.31
				c-0.516-0.342-1.041-0.292-1.824-0.568c-0.62-0.094-1.006-0.175-1.622-0.343c-0.354,0.103-0.784-0.041-1.228-0.1
				c-0.418-0.053-0.877-0.075-1.286-0.216c-0.667-0.02-1.233,0.042-2.011-0.076c-0.357,0.069-0.646,0.147-1.051,0.053
				c-0.34,0.038-0.963,0.16-1.221,0.067c-0.262-0.061-0.174,0.134-0.436,0.074c-0.031,0.109-0.229-0.084-0.264,0.103
				c-0.204-0.117-0.18-0.081-0.514-0.062c-0.492,0.237-0.953,0.074-1.633,0.259c-1.646,0.137-3.494,0.366-5.32,0.743
				c-1.828,0.377-3.617,0.909-5.167,1.529c0.063,0.144-0.642,0.203-0.42,0.365c-0.216,0.163,0.246-0.06,0.227,0.074
				c0.171-0.059,0.218,0.062,0.323,0.093c0.467-0.052,0.801,0.07,1.332-0.049c0.964-0.335,1.402-0.495,2.154-0.645
				c0.163-0.025,0.143-0.112,0.216-0.167c0.192,0.067,0.706-0.154,0.919-0.093c0.217-0.108,0.414-0.15,0.652-0.137
				c0.07-0.197,0.359-0.113,0.575-0.094c-0.028-0.094,0.06-0.138,0.229-0.146c0.984-0.143,1.349-0.314,2.552-0.417
				c0.188-0.074,0.502-0.059,0.662-0.142c0.068,0.119,0.469,0.001,0.669,0.025c0.694-0.101,1.351-0.148,2.087-0.169
				c0.198-0.054,0.42-0.092,0.652-0.124c0.233-0.023,0.478-0.026,0.724-0.035c0.492-0.015,0.989-0.026,1.415-0.095
				c0.343,0.157,0.596,0.047,0.842,0.058c0.168,0.011,0.327,0.116,0.492,0.127c0.118,0.008,0.299-0.053,0.433-0.045
				c0.264,0.015,0.492,0.046,0.759,0.058c0.4,0.033,0.82,0.099,1.014,0.104c0.064,0.004,0.072-0.034,0.094-0.034
				c0.074-0.001,0.154,0.089,0.154,0.089c0.309,0.04,0.572,0.03,0.836,0.127c0.533-0.02,1.028,0.158,1.691,0.23
				c0.763,0.28,1.336,0.175,1.896,0.467c0.176,0.033,0.271-0.042,0.514,0.076c0.231-0.054,0.121,0.131,0.379,0.199
				c0.193-0.046,0.559,0.134,0.773,0.115c0.312,0.11,0.596,0.182,0.779,0.116c0.033-0.032,0.042-0.098,0.121-0.07
				C113.778,42.646,113.31,42.424,113.444,42.231z M108.732,41.724c-0.034-0.039,0.079-0.048,0.097-0.028
				C108.864,41.735,108.751,41.745,108.732,41.724z"/>
		</g>
	</g>
	<g>
		<g>
			<path fill-rule="evenodd" clip-rule="evenodd" fill="#CA4339" stroke="#CA4339" stroke-miterlimit="10" d="M64.251,50.722
				c0.008-0.068-0.092-0.096,0.012-0.199c-0.137-0.038-0.004-0.175-0.107-0.227c-0.2-0.081-0.399-0.197-0.596-0.206
				c-0.142-0.255-0.395-0.212-0.674-0.43c-0.127-0.034-0.23-0.061-0.331-0.097c-0.104-0.026-0.204-0.063-0.323-0.129
				c-0.18,0.109-0.334-0.015-0.514-0.058c-0.168-0.05-0.37-0.005-0.523-0.129c-0.281-0.003-0.518,0.046-0.832-0.01
				c-0.152,0.098-0.27,0.172-0.432,0.076c-0.139,0.028-0.385,0.175-0.488,0.092c-0.107-0.051-0.066,0.141-0.172,0.09
				c-0.008,0.111-0.094-0.089-0.1,0.098c-0.086-0.122-0.076-0.085-0.207-0.076c-0.18,0.223-0.37,0.092-0.622,0.252
				c-1.278,0.16-2.839,0.576-4.087,1.063c0.08,0.139-0.285,0.046-0.112,0.227c-0.064,0.09,0.114,0.002,0.147,0.109
				c0.072-0.015,0.137,0.096,0.203,0.145c0.225,0.044,0.434,0.219,0.654,0.206c0.359-0.132,0.516-0.21,0.808-0.25
				c0.065,0.001,0.032-0.082,0.052-0.122c0.107,0.099,0.264-0.063,0.371,0.02c0.063-0.08,0.141-0.09,0.244-0.048
				c-0.016-0.172,0.121-0.076,0.213-0.039c-0.033-0.091-0.008-0.125,0.059-0.119c0.373-0.024,0.473-0.209,0.926-0.211
				c0.059-0.059,0.178-0.043,0.227-0.118c0.043,0.119,0.175,0.011,0.253,0.043c0.249-0.039,0.479-0.123,0.746-0.131
				c0.279-0.187,0.699-0.157,1.013-0.274c0.119,0.157,0.219,0.013,0.312,0.014c0.062,0.002,0.114,0.088,0.173,0.098
				c0.043,0.005,0.116-0.059,0.166-0.054c0.096,0.008,0.178,0.033,0.277,0.038c0.147,0.008,0.306,0.021,0.379,0.02
				c0.024,0,0.035-0.037,0.043-0.038c0.029-0.005,0.043,0.08,0.043,0.08c0.111,0.024,0.219,0.003,0.301,0.085
				c0.208-0.021,0.387,0.055,0.637,0.096c0.238,0.206,0.506,0.106,0.666,0.303c0.067,0.016,0.139-0.056,0.203,0.032
				c0.128-0.064,0.006,0.108,0.098,0.15c0.106-0.053,0.203,0.081,0.311,0.052c0.101,0.077,0.203,0.122,0.319,0.057
				c0.03-0.03,0.063-0.086,0.089-0.066C64.231,51.061,64.101,50.894,64.251,50.722z M62.279,50.539
				c-0.004-0.035,0.046-0.05,0.048-0.032C62.331,50.541,62.28,50.557,62.279,50.539z"/>
		</g>
	</g>
	<g>
		<g>
			<path fill-rule="evenodd" clip-rule="evenodd" fill="#CA4339" stroke="#CA4339" stroke-miterlimit="10" d="M108.351,50.722
				c0.01-0.068-0.092-0.096,0.011-0.199c-0.136-0.038-0.001-0.175-0.105-0.227c-0.2-0.081-0.401-0.197-0.596-0.206
				c-0.143-0.255-0.396-0.212-0.675-0.43c-0.127-0.034-0.23-0.061-0.33-0.097c-0.104-0.026-0.205-0.063-0.324-0.129
				c-0.18,0.109-0.334-0.015-0.514-0.058c-0.168-0.05-0.369-0.005-0.523-0.129c-0.279-0.003-0.517,0.046-0.832-0.01
				c-0.152,0.098-0.27,0.172-0.43,0.076c-0.141,0.028-0.387,0.175-0.49,0.092c-0.105-0.051-0.065,0.141-0.171,0.09
				c-0.009,0.111-0.095-0.089-0.101,0.098c-0.086-0.122-0.075-0.085-0.207-0.076c-0.18,0.223-0.369,0.092-0.621,0.252
				c-1.277,0.16-2.84,0.576-4.086,1.063c0.078,0.139-0.287,0.046-0.113,0.227c-0.064,0.09,0.115,0.002,0.146,0.109
				c0.074-0.015,0.137,0.096,0.203,0.145c0.226,0.044,0.435,0.219,0.654,0.206c0.36-0.132,0.518-0.21,0.809-0.25
				c0.064,0.001,0.033-0.082,0.051-0.122c0.107,0.099,0.264-0.063,0.373,0.02c0.062-0.08,0.139-0.09,0.242-0.048
				c-0.016-0.172,0.121-0.076,0.213-0.039c-0.033-0.091-0.007-0.125,0.061-0.119c0.372-0.024,0.471-0.209,0.924-0.211
				c0.061-0.059,0.18-0.043,0.227-0.118c0.043,0.119,0.176,0.011,0.254,0.043c0.249-0.039,0.479-0.123,0.744-0.131
				c0.28-0.187,0.7-0.157,1.016-0.274c0.117,0.157,0.217,0.013,0.311,0.014c0.062,0.002,0.114,0.088,0.172,0.098
				c0.043,0.005,0.116-0.059,0.166-0.054c0.096,0.008,0.179,0.033,0.277,0.038c0.147,0.008,0.306,0.021,0.379,0.02
				c0.025,0,0.035-0.037,0.043-0.038c0.029-0.005,0.044,0.08,0.044,0.08c0.11,0.024,0.218,0.003,0.3,0.085
				c0.208-0.021,0.387,0.055,0.637,0.096c0.238,0.206,0.506,0.106,0.666,0.303c0.067,0.016,0.139-0.056,0.205,0.032
				c0.126-0.064,0.004,0.108,0.096,0.15c0.105-0.053,0.203,0.081,0.312,0.052c0.101,0.077,0.202,0.122,0.317,0.057
				c0.032-0.03,0.066-0.086,0.09-0.066C108.331,51.061,108.202,50.894,108.351,50.722z M106.378,50.539
				c-0.003-0.035,0.049-0.05,0.05-0.032C106.431,50.541,106.38,50.557,106.378,50.539z"/>
		</g>
	</g>
	<g>
		<g>
			<path fill-rule="evenodd" clip-rule="evenodd" fill="#CA4339" stroke="#CA4339" stroke-miterlimit="10" d="M84.668,50.513
				c-0.028,0.158,0.101,0.607-0.067,0.508c0.173,0.607-0.047,0.48,0.074,0.996c0.239,0.949,0.455,1.991,0.705,2.776
				c0.064,1.144,0.373,2.051,0.562,3.627c0.242,1.173,0.394,1.918,0.512,3.132c0.244,0.604,0.281,1.466,0.383,2.31
				c0.094,0.794,0.227,1.663,0.164,2.465c0.045,0.62,0.076,1.189,0.049,1.764c-0.006,0.145-0.014,0.289-0.039,0.425l-0.029,0.21
				c-0.016,0.051-0.028,0.104-0.041,0.156l-0.016,0.081l-0.055,0.116l-0.057,0.117L86.8,69.225l-0.007,0.014l-0.003,0.008
				l-0.059,0.004c0.057-0.101-0.027-0.027-0.027-0.049l0,0l0.054,0.002l-0.009,0.05c-0.098,0.133-0.188,0.271-0.293,0.412
				c-0.07,0.144-0.129,0.288-0.205,0.419c-0.084,0.121-0.168,0.238-0.264,0.356c-0.096,0.114-0.188,0.241-0.311,0.344
				c-0.129,0.096-0.27,0.189-0.424,0.284c-0.057,0.049-0.112,0.11-0.181,0.165c-0.073,0.048-0.153,0.101-0.233,0.153
				c-0.166,0.099-0.328,0.246-0.525,0.312c-0.192,0.079-0.379,0.163-0.553,0.216c-0.18,0.038-0.34,0.062-0.459,0.065
				c-0.479,0.044-0.299,0.181-0.791,0.187c-0.051,0.123-0.434-0.061-0.502,0.123c-0.406-0.117-0.34-0.071-0.994-0.068
				c-0.486,0.105-0.949,0.111-1.455,0.078c-0.504-0.037-1.047-0.103-1.699-0.233c-0.755-0.237-1.493-0.644-2.055-1.267
				c-0.145-0.152-0.281-0.311-0.398-0.484c-0.129-0.162-0.238-0.35-0.348-0.539c-0.217-0.354-0.335-0.776-0.423-1.199
				c-0.325-1.717-0.183-3.553,0.019-5.344c0.441-3.596,1.295-7.122,2.154-10.174c-0.153-0.061,0.41-1.159,0.123-1.02
				c0.095-0.512-0.182,0.439-0.244,0.262c-0.109,0.325-0.228,0.27-0.342,0.406c-0.358,0.807-0.728,1.246-1.059,2.289
				c-0.496,2.008-0.663,2.933-1.012,4.446c-0.079,0.322,0.004,0.35,0.008,0.527c-0.186,0.309-0.268,1.438-0.428,1.811
				c-0.016,0.484-0.072,0.889-0.193,1.35c0.141,0.255-0.041,0.77-0.137,1.191c0.097-0.004,0.109,0.193,0.063,0.533
				c-0.091,1.024-0.07,1.75-0.001,2.538c0.037,0.396,0.084,0.805,0.186,1.288c0.041,0.238,0.116,0.5,0.196,0.783
				c0.048,0.144,0.11,0.293,0.169,0.449l0.023,0.059l0.059,0.111l0.052,0.094c0.035,0.064,0.071,0.129,0.108,0.195
				c0.102,0.145,0.293,0.4,0.473,0.633c0.186,0.226,0.379,0.417,0.538,0.533c0.007,0.084,0.193,0.287,0.444,0.477
				c0.129,0.092,0.265,0.192,0.398,0.276c0.135,0.079,0.262,0.154,0.357,0.221c0.734,0.381,1.502,0.548,2.245,0.64
				c0.745,0.088,1.481,0.094,2.226,0.1c0.417-0.04,0.868-0.082,1.342-0.128c0.252-0.034,0.512-0.067,0.772-0.103
				c0.259-0.059,0.52-0.118,0.782-0.178c0.26-0.073,0.515-0.186,0.768-0.277c0.254-0.097,0.479-0.258,0.709-0.384
				c0.238-0.12,0.416-0.312,0.609-0.468c0.094-0.082,0.185-0.164,0.274-0.243c0.085-0.083,0.151-0.179,0.224-0.267
				c0.656-0.432,0.809-0.982,1.105-1.396l0.037-0.054l0.053-0.096l0.062-0.109l0.066-0.105c0.021-0.041,0.045-0.096,0.066-0.145
				c0.041-0.099,0.084-0.201,0.123-0.305c0.029-0.096,0.047-0.18,0.062-0.272c0.053-0.263,0.006-0.634,0.02-0.913
				c0.021-0.545,0.027-1.015-0.004-1.557c-0.049-0.811-0.128-1.658-0.191-2.041c-0.02-0.127-0.059-0.127-0.064-0.169
				c-0.029-0.145,0.029-0.337,0.029-0.337c-0.077-0.619-0.189-1.125-0.207-1.68c-0.224-1.015-0.334-2.046-0.628-3.331
				c-0.181-1.599-0.569-2.594-0.692-3.812c-0.088-0.343-0.213-0.462-0.275-0.984c-0.199-0.379,0.027-0.314-0.09-0.832
				c-0.168-0.312-0.266-1.104-0.43-1.472c-0.125-0.643-0.264-1.202-0.443-1.467c-0.049-0.032-0.106,0.007-0.139-0.153
				C84.769,49.592,84.917,50.59,84.668,50.513z M87.164,59.359c-0.017,0.088-0.085-0.116-0.077-0.164
				C87.104,59.108,87.173,59.313,87.164,59.359z"/>
		</g>
	</g>
	<g>
		<circle fill="#CA4339" cx="105.225" cy="65.98" r="0.675"/>
	</g>
	<g>
		<circle fill="#CA4339" cx="62.475" cy="79.93" r="0.675"/>
	</g>
	<g>
		<circle fill="#CA4339" cx="108.826" cy="71.83" r="0.675"/>
	</g>
	<g>
		<path fill="#FFFFFF" d="M107.851,10.105c-3.15-0.6-4.951,1.951-4.65,7.65s0.9,7.2,4.95,8.55s9.301,2.4,11.7,6
			c2.4,3.6-0.9,22.649,1.201,24.3c2.098,1.65,4.947,0.149,7.049-1.65c2.1-1.8-0.451-31.5-3.15-35.4
			C120.3,13.855,111,10.706,107.851,10.105z"/>
	</g>
	<g>
		<path fill="#FFFFFF" d="M107.136,19.751c-1.763-0.335-2.793,1.093-2.602,4.28c0.113,1.889,1.19,1.565,3.455,2.32
			c2.266,0.755,10.564,4.564,11.906,6.579c1.342,2.013-0.504,12.67,0.67,13.593c1.176,0.923,2.594-0.62,3.391-1.947
			c0.969-1.617-0.344-14.656-1.855-16.838C119.501,24.549,108.897,20.087,107.136,19.751z"/>
	</g>
	<g>
		<g>
			<path fill-rule="evenodd" clip-rule="evenodd" fill="#CA4339" stroke="#CA4339" stroke-miterlimit="10" d="M108.924,11.154
				c0.301,0.172,1.331,0.436,0.979,0.553c1.387,0.383,0.928,0.534,2.064,0.921c2.108,0.73,4.312,1.753,5.986,2.575
				c0.51,0.376,1.02,0.702,1.504,1.059c0.244,0.177,0.5,0.339,0.744,0.521c0.244,0.182,0.492,0.366,0.746,0.555
				c0.984,0.772,2.062,1.648,3.086,2.964c-0.016-0.022-0.037-0.048-0.057-0.074c0.02,0.035,0.043,0.075,0.066,0.116
				c0.252,0.422,0.469,1.014,0.643,1.545c0.178,0.543,0.324,1.081,0.455,1.626c0.266,1.092,0.475,2.218,0.67,3.622
				c0.482,1.41,0.66,3.416,0.918,5.395c0.246,1.866,0.549,3.907,0.58,5.82c0.307,2.951,0.656,5.454,0.672,8.971
				c0.188,1.564,0.326,2.864,0.082,4.667c-0.01,0.371-0.023,0.82-0.064,1.288c-0.023,0.234-0.053,0.473-0.098,0.697
				c-0.021,0.115-0.047,0.219-0.078,0.318l-0.045,0.13c-0.014,0.036-0.006,0.019,0,0.041l-0.061,0.075
				c-0.014,0,0.006,0.029,0.014,0.046l0.014,0.03l0.008,0.585c-0.01-0.046,0.02,0.469-0.018,0.469h-0.002l-0.002-0.568l-0.035-0.253
				l-0.139-0.018c-0.094,0.082-0.184,0.095-0.277,0.169c-0.186,0.153-0.367,0.263-0.545,0.387c-0.354,0.255-0.684,0.425-0.938,0.534
				c-0.51,0.239-0.656,0.342-0.805,0.464c-0.076,0.063-0.152,0.119-0.279,0.176c-0.125,0.062-0.299,0.129-0.57,0.175
				c-0.045,0.106-0.289,0.113-0.527,0.134c-0.238-0.001-0.469,0.013-0.547,0.14c-0.213-0.051-0.355-0.096-0.475-0.146
				c-0.121-0.04-0.221-0.067-0.332-0.114c-0.115-0.04-0.248-0.075-0.398-0.155c-0.08-0.038-0.168-0.063-0.293-0.155
				c-0.061-0.04-0.125-0.083-0.195-0.128l-0.053-0.035l-0.025-0.018l-0.008,0.695c-0.006-0.004,0.066,0.716,0.045,0.716h-0.432
				v-1.399v-0.001v-0.005c0-0.017,0.175-0.018,0.159-0.044c-0.135-0.101-0.163-0.34-0.245-0.582
				c-0.088-0.246-0.101-0.512-0.147-0.782c-0.096-0.542-0.105-1.107-0.125-1.7c-0.035-1.187,0.018-2.488-0.021-4.066
				c0.137-3.772,0.487-7.782,0.411-11.938c-0.029-1.039-0.085-2.088-0.271-3.14c-0.102-0.526-0.217-1.048-0.477-1.567
				c-0.119-0.249-0.301-0.467-0.455-0.684c-0.154-0.227-0.339-0.423-0.522-0.625c-1.49-1.604-3.498-2.577-5.484-3.345
				c-2-0.773-4.063-1.32-6.008-2.043c-0.959-0.362-1.863-0.832-2.506-1.514c-0.628-0.694-0.957-1.61-1.127-2.582
				c-0.18-0.969-0.248-1.975-0.301-2.966c-0.049-1.018-0.068-1.974-0.014-2.932c0.064-0.949,0.211-1.875,0.495-2.704
				c0.14-0.417,0.329-0.793,0.544-1.135c0.236-0.313,0.482-0.613,0.792-0.788c-0.068-0.131,0.462-0.388,0.989-0.423
				c0.067-0.006,0.131-0.013,0.193-0.02c0.061,0.003,0.117,0.005,0.171,0.007c0.116,0.006,0.192-0.013,0.298-0.005
				c0.196,0.009,0.287-0.023,0.179-0.129c0.61,0.05,0.337-0.01-0.038-0.097c-0.201-0.057-0.365-0.053-0.502-0.087
				c-0.128-0.031-0.201-0.056-0.119-0.1c-0.369,0.026-0.554-0.005-0.693-0.021c-0.139-0.021-0.246-0.09-0.442-0.059
				c-0.511,0.149-0.919,0.433-1.296,0.731c-0.164,0.165-0.344,0.327-0.494,0.508c-0.135,0.186-0.3,0.368-0.416,0.573
				c-0.508,0.809-0.873,1.786-1.055,3.114c-0.119,1.258-0.082,2.353-0.035,3.291c0.044,0.938,0.104,1.806,0.215,2.633
				c0.112,0.83,0.25,1.646,0.585,2.506c0.327,0.855,0.952,1.744,1.817,2.39c0.733,0.54,0.839,0.406,1.259,0.568
				c0.336,0.284,1.194,0.636,2.021,0.909c0.821,0.279,1.675,0.546,2.069,0.76c1.079,0.256,1.955,0.549,2.891,1.015
				c0.586-0.054,1.613,0.567,2.35,1.074c0.043-0.139,0.441,0.017,1.02,0.432c0.879,0.6,1.51,1.195,2.002,1.802l0.172,0.232
				l0.086,0.113l0.045,0.057l0.021,0.028l0.004,0.007l-0.482,0.004c-0.055-0.084-0.512-0.022-0.512-0.04v0.001l0.498,0.018
				l0.328,0.141c0.023,0.039,0.144,0.047,0.155,0.07c0.018,0.024,0.117,0.128,0.146,0.189c0.115,0.304,0.239,0.668,0.312,1.053
				c0.283,1.565,0.364,3.423,0.233,6.211c0.047,0.902-0.06,2.348-0.003,3.139c-0.195,0.248-0.17,2.177-0.281,3.104
				c-0.068,1.649-0.118,3.25-0.116,4.896c0.002,0.825,0.017,1.658,0.084,2.534c0.035,0.439,0.083,0.888,0.177,1.373
				c0.049,0.245,0.105,0.496,0.209,0.781c0.111,0.28,0.223,0.609,0.627,0.997l0.086,0.072l0.07,0.051l0.006,0.002l0.01,0.006
				l0.02,0.012l0.076,0.045l0.156,0.091l0.16,0.094l0.25,0.119c0.346,0.173,0.66,0.251,0.99,0.331
				c0.666,0.134,1.354,0.096,1.99-0.039c1.285-0.275,2.393-0.907,3.389-1.62c0.25-0.179,0.49-0.367,0.727-0.559l0.346-0.294
				l0.086-0.074l0.021-0.019l0.082-0.078l0.01-0.01l0.035-0.04c0.023-0.019,0.154-0.19,0.234-0.332
				c0.125-0.236,0.174-0.394,0.23-0.571c0.045-0.167,0.088-0.332,0.117-0.486c0.062-0.315,0.098-0.611,0.131-0.905
				c0.117-1.167,0.109-2.251,0.07-3.247c0.246-1.661-0.012-2.815-0.055-3.963c-0.031-0.784,0.068-1.57,0.021-2.35
				c-0.031-0.552-0.195-1.358-0.242-1.984c-0.096-1.224-0.162-2.296-0.289-3.539c-0.191-1.859-0.416-3.822-0.553-4.711
				c-0.045-0.295-0.102-0.297-0.119-0.396c-0.031-0.169-0.031-0.361-0.021-0.513c0.008-0.151,0.023-0.264,0.023-0.264
				c-0.191-1.44-0.434-2.621-0.547-3.91c-0.24-1.19-0.479-2.377-0.734-3.647c-0.279-1.268-0.566-2.621-1.152-4.095
				c-0.15-0.446-0.314-0.871-0.582-1.281l-0.006-0.012l-0.016-0.017c-0.992-1.206-2.012-2.083-3.008-2.852
				c-1.014-0.753-1.99-1.423-3.041-2.133c-0.73-0.409-1.093-0.436-2.15-1.07c-0.949-0.259-0.566-0.458-1.713-0.958
				c-0.78-0.213-2.477-0.999-3.395-1.189c-1.436-0.541-2.754-0.881-3.473-0.872c-0.109,0.039-0.076,0.146-0.443,0.062
				c-0.506,0.004-0.188,0.158,0.197,0.34C108.653,10.789,109.11,11.03,108.924,11.154z M126.347,22.12
				c0.008,0.202-0.174-0.269-0.182-0.377C126.153,21.541,126.345,22.011,126.347,22.12z"/>
		</g>
	</g>
	<g>
		<path fill="#FFFFFF" d="M48.3,25.255c5.251,0,10.5,10.65,33.15,11.101s25.35-14.1,25.65-17.4c0.451-10.95-10.2-16.8-17.701-17.25
			c-19.5-0.9-29.85,12.149-33.749,13.199s-4.2,0-11.851-1.35c-9.6,0.9-12.15,11.25-11.85,16.051c0.301,4.8-0.6,22.5,1.5,25.05
			c2.101,2.55,4.05,2.25,6,0.45C41.401,53.305,40.8,25.555,48.3,25.255z"/>
	</g>
	<g>
		<path fill="#FFFFFF" d="M48.347,24.8c5.25,0,10.453,10.89,33.104,11.266s25.35-11.784,25.65-14.542
			c0.451-9.152-13.201-11.642-20.699-12.018C66.9,8.752,59.55,17.26,55.65,18.138c-3.899,0.878-2.999,1.496-10.649,0.367
			c-9.601,0.752-9.301,12.938-9,16.951c0.299,4.011-1.951,17.373,0.148,19.504c2.102,2.131,1.65-0.3,3.601-1.805
			C41.7,51.651,40.847,25.051,48.347,24.8z"/>
	</g>
	<g>
		<path fill="#CA4339" d="M93.31,8.734c0,0,0.311,0.124,0.834,0.383c0.526,0.258,1.262,0.66,2.096,1.22
			c0.832,0.562,1.766,1.294,2.605,2.243c0.424,0.471,0.803,1.008,1.146,1.583c0.324,0.585,0.586,1.219,0.759,1.883
			c0.143,0.668,0.243,1.358,0.179,2.035l-0.01,0.253l-0.039,0.249c-0.025,0.166-0.053,0.331-0.077,0.495
			c-0.075,0.322-0.167,0.637-0.259,0.945c-0.121,0.296-0.234,0.591-0.359,0.872c-0.143,0.273-0.283,0.539-0.426,0.794
			c-0.322,0.487-0.611,0.956-0.94,1.343c-0.157,0.199-0.308,0.388-0.459,0.562c-0.158,0.167-0.308,0.325-0.45,0.474
			c-0.141,0.148-0.271,0.288-0.394,0.416c-0.132,0.119-0.253,0.228-0.362,0.326c-0.438,0.389-0.688,0.611-0.688,0.611l-0.031-0.032
			c0,0,0.22-0.25,0.606-0.689c0.196-0.214,0.425-0.483,0.675-0.801c0.127-0.158,0.262-0.325,0.404-0.501
			c0.131-0.184,0.268-0.377,0.412-0.58c0.302-0.392,0.562-0.86,0.85-1.343c0.122-0.253,0.252-0.511,0.387-0.772
			c0.117-0.27,0.221-0.551,0.334-0.833c0.088-0.29,0.182-0.585,0.26-0.888c0.039-0.308,0.141-0.614,0.144-0.933
			c0.081-0.634,0.007-1.284-0.105-1.921c-0.147-0.633-0.382-1.245-0.681-1.815c-0.316-0.561-0.672-1.092-1.074-1.563
			c-0.799-0.943-1.69-1.699-2.496-2.284c-0.809-0.583-1.525-1.007-2.041-1.281c-0.513-0.276-0.816-0.41-0.816-0.41L93.31,8.734z"/>
	</g>
	<g>
		<g>
			<path fill-rule="evenodd" clip-rule="evenodd" fill="#CA4339" stroke="#CA4339" stroke-miterlimit="10" d="M45.567,25.722
				c-0.313,0.229-0.818,0.821-1.139,1.297c-0.33,0.473-0.543,0.812-0.49,0.479c-0.354,0.679-0.55,1.145-0.717,1.49
				c-0.16,0.346-0.277,0.575-0.387,0.789c-0.215,0.43-0.432,0.806-0.754,1.982c-1.137,4.359-1.662,9.102-1.943,12.745
				c-0.404,2.496-0.624,4.813-0.971,7.298c-0.09,0.616-0.191,1.249-0.333,1.837c-0.036,0.143-0.074,0.287-0.116,0.411
				c-0.033,0.115-0.1,0.258-0.094,0.25c0.007-0.012,0.016-0.023,0.025-0.034c-0.013-0.019,0.062,0.029,0.094,0.049
				c0.038,0.027,0.092,0.056,0.112,0.087l0.108,0.185l0.055,0.093l0.027,0.046l0.013,0.023l0.007,0.012
				c0.358,0.457-0.479-0.608-0.395-0.499l-0.176,0.153c-0.116,0.107-0.236,0.198-0.359,0.291c-0.484,0.372-1.01,0.619-1.473,0.638
				c-0.234,0.017-0.461-0.021-0.709-0.127c-0.245-0.099-0.508-0.259-0.768-0.491c-0.105-0.079-0.203-0.161-0.287-0.247
				c-0.09-0.086-0.172-0.151-0.287-0.286l-0.159-0.176l-0.079-0.088l-0.039-0.043l-0.731-0.006c-0.007-0.008-0.7,0.057-0.7,0.03
				v-0.001l0.723-0.005l0.358-0.01c-0.027-0.05,0.115-0.078,0.072-0.188c-0.178-0.363-0.233-0.9-0.34-1.412
				c-0.212-1.047-0.282-2.111-0.372-3.176c-0.174-2.139-0.205-4.328-0.191-7.034c-0.274-2.806-0.096-6.624-0.139-10.463
				c-0.008-0.456-0.012-0.909-0.034-1.393c-0.013-0.234-0.024-0.47-0.037-0.706c-0.01-0.211-0.023-0.422-0.023-0.639
				c-0.015-0.862,0.062-1.756,0.201-2.64c0.275-1.769,0.826-3.514,1.639-5.018c0.886-1.853,2.046-3.429,3.556-4.626
				c1.505-1.198,3.385-1.977,5.564-2.187c-0.071-0.002-0.151-0.006-0.229-0.009c1.289,0.243,2.67,0.499,4.127,0.855
				c0.738,0.12,1.438,0.26,2.145,0.386c0.355,0.064,0.71,0.127,1.064,0.191c0.371,0.046,0.744,0.092,1.12,0.14
				c0.39,0.01,0.785,0.018,1.187,0.015c0.402-0.048,0.824-0.089,1.234-0.148c0.378-0.081,0.766-0.164,1.166-0.25
				c0.508-0.122,0.96-0.315,1.371-0.538c1.33-0.802,2.889-2.133,4.457-3.33c1.557-1.204,3.102-2.277,4.068-2.808
				c0.969-0.562,1.26-0.795,1.555-1.027c0.297-0.228,0.586-0.474,1.592-0.969c0.16-0.289,1.791-0.771,1.955-1.145
				c0.824-0.295,1.193-0.399,1.672-0.604c0.238-0.104,0.515-0.208,0.893-0.363c0.377-0.16,0.863-0.346,1.536-0.583
				c1.972-0.852,3.962-1.396,6.181-1.78c2.227-0.373,4.676-0.585,7.658-0.604C90.409,1.85,92.2,2.188,93.949,2.72
				c1.749,0.541,3.452,1.311,5.05,2.292c1.588,0.994,3.08,2.196,4.319,3.651c0.618,0.724,1.185,1.502,1.667,2.333
				c0.478,0.834,0.875,1.716,1.182,2.632c0.315,0.914,0.514,1.87,0.629,2.834c0.068,0.483,0.078,0.967,0.105,1.451l-0.01,0.742
				c-0.004,0.115,0.004,0.266-0.01,0.353c-0.015,0.121-0.025,0.243-0.043,0.364c-0.26,1.939-0.854,3.848-1.736,5.614
				c-1.746,3.552-4.762,6.437-8.334,8.161c-3.564,1.77-7.555,2.52-11.487,2.749c-3.95,0.182-7.896-0.073-11.709-0.655
				c-3.812-0.595-7.487-1.618-10.862-3.094c-1.688-0.737-3.295-1.596-4.832-2.524c-1.537-0.932-2.987-1.949-4.463-2.945
				c-0.112,0.083-1.213-0.732-2.379-1.337c-0.578-0.308-1.201-0.515-1.613-0.602c-0.455-0.067-0.645-0.05-0.387,0.084
				c-0.082-0.012-0.158-0.022-0.226-0.031c-0.06-0.002-0.113-0.003-0.161-0.004c-0.094-0.001-0.166-0.002-0.217-0.003
				c-0.104,0-0.124,0.006-0.086,0.016c0.039,0.009,0.135,0.022,0.269,0.04c0.067,0.008,0.144,0.018,0.226,0.028
				c0.092,0.021,0.189,0.042,0.291,0.063c0.804,0.177,1.635,0.643,1.277,0.563c0.704,0.335,0.98,0.571,1.168,0.752
				c0.184,0.186,0.277,0.322,0.546,0.559c1.562,1.116,2.717,2.129,4.052,3.125c1.332,0.997,2.82,2.024,5.019,3.113
				c4.224,1.947,7.546,2.726,10.554,3.322c3.023,0.551,5.791,0.847,9.234,1.015c0.193,0.011,0.325,0.02,0.512,0.022
				c0.141-0.002,0.266-0.005,0.376-0.007c0.222-0.008,0.388-0.022,0.534-0.04c0.292-0.034,0.5-0.08,0.887-0.102
				c0.736,0.087,2.408,0.041,4.064-0.119c1.664-0.188,3.354-0.472,4.227-0.616c2.111-0.583,3.865-1.172,5.849-2.03
				c0.218-0.177,0.522-0.364,0.868-0.589c0.352-0.218,0.762-0.438,1.178-0.707c0.857-0.494,1.762-1.129,2.54-1.731
				c-0.067-0.037,0.056-0.217,0.343-0.519c0.292-0.295,0.721-0.736,1.257-1.311c1.562-1.761,2.56-3.526,3.267-5.224
				c0.693-1.71,1.121-3.356,1.314-5.129l0.016-0.168l-0.654-0.042l-0.654-0.131V18.86l0.661-0.313c0-0.21,0.329-0.422,0.329-0.636
				c-0.031-0.465,0.132-0.958,0.062-1.42c-0.093-0.943-0.222-1.918-0.529-2.935c-0.619-2.025-1.708-4.223-3.653-6.333
				c-0.648-0.655-1.514-1.456-2.44-2.146c-0.924-0.695-1.882-1.273-2.59-1.613C98.563,3.26,97.62,2.71,96.458,2.229
				c-1.158-0.492-2.522-0.904-3.417-1.15c-0.799-0.197-1.603-0.343-2.417-0.438c-0.203-0.023-0.404-0.051-0.611-0.063l-0.307-0.024
				l-0.153-0.011l-0.075-0.006l-0.115-0.003l-1.146-0.021L87.644,0.5l-0.596,0.013l-1.189,0.029c-0.785,0.059-1.566,0.082-2.35,0.18
				c-3.128,0.321-6.264,1.004-9.438,2.123c-1.704,0.674-3.545,1.512-5.405,2.514c-1.864,0.995-3.733,2.174-5.545,3.432
				c-1.81,1.255-3.549,2.624-5.211,3.863c-0.416,0.304-0.829,0.607-1.235,0.865c-0.402,0.259-0.818,0.504-1.162,0.614l-0.033,0.013
				l-0.018,0.006l-0.008,0.003l-0.004,0.001c0.066-0.016,0.015-0.003,0.028-0.007l-0.091,0.023l-0.182,0.045l-0.359,0.09
				c-0.238,0.058-0.48,0.125-0.707,0.174c-0.212,0.029-0.421,0.083-0.629,0.111L53.2,14.668h-0.316
				c-0.176,0-0.347-0.061-0.514-0.078c-0.168-0.013-0.34-0.079-0.504-0.107c-0.33-0.064-0.646-0.125-0.973-0.212
				c-0.65-0.146-1.26-0.286-1.842-0.416c-0.586-0.129-1.158-0.228-1.709-0.332c-0.552-0.107-1.09-0.206-1.627-0.302
				c-0.6-0.112-1.195-0.247-1.788-0.387l-0.069-0.017l-0.127,0.008c-0.914,0.06-1.836,0.186-2.725,0.457
				c-1.074,0.315-2.514,1.146-3.512,1.904c-0.985,0.732-1.797,1.555-2.508,2.453c-0.705,0.901-1.317,1.879-1.831,2.992
				c-0.78,1.66-1.3,3.474-1.57,5.087c-0.274,1.614-0.294,3.029-0.222,3.919c0.039,0.551,0.094,0.569,0.106,0.751
				c0.022,0.312,0.003,0.675-0.018,0.954c-0.028,0.279-0.048,0.482-0.05,0.488c0.035,2.727,0.08,5.003,0.002,7.439
				c0.066,2.284,0.098,4.572,0.202,7.02c0.056,1.223,0.128,2.488,0.267,3.812c0.068,0.662,0.156,1.339,0.283,2.034
				c0.133,0.695,0.272,1.406,0.602,2.14c0.055,0.114,0.096,0.227,0.16,0.339c0.076,0.116,0.137,0.221,0.229,0.342
				c0.145,0.165,0.271,0.326,0.428,0.489c0.326,0.333,0.648,0.64,1.031,0.882c0.727,0.511,1.706,0.759,2.562,0.568
				c0.866-0.162,1.546-0.627,2.128-1.092c0.146-0.119,0.281-0.247,0.419-0.368c0.165-0.144,0.311-0.423,0.377-0.588
				c0.144-0.369,0.228-0.715,0.301-1.059c0.276-1.371,0.405-2.67,0.562-3.969c0.149-1.298,0.298-2.59,0.486-3.924
				c0.141-1.557,0.055-2.19,0.404-4.479c0.062-1.819,0.298-1.311,0.64-3.615c0.045-0.749,0.243-1.982,0.503-3.232
				c0.256-1.251,0.582-2.512,0.788-3.353c0.439-1.365,0.954-2.612,1.537-3.588c0.573-0.985,1.245-1.654,1.793-2.009
				c0.146-0.119-0.019-0.223,0.708-0.406c0.474-0.132,0.566-0.167,0.404-0.206c-0.154-0.031-0.57-0.051-1.016,0.081
				C46.291,25.314,45.453,26.081,45.567,25.722z M32.094,51.274c-0.005-0.375,0.171,0.56,0.187,0.762
				C32.294,52.414,32.091,51.478,32.094,51.274z"/>
		</g>
	</g>
</g>
</svg>
