<?xml version="1.0" encoding="utf-8"?>
<!-- Generator: Adobe Illustrator 16.0.0, SVG Export Plug-In . SVG Version: 6.00 Build 0)  -->
<!DOCTYPE svg PUBLIC "-//W3C//DTD SVG 1.1//EN" "http://www.w3.org/Graphics/SVG/1.1/DTD/svg11.dtd">
<svg version="1.1" id="Layer_1" xmlns="http://www.w3.org/2000/svg" xmlns:xlink="http://www.w3.org/1999/xlink" x="0px" y="0px"
	 width="35px" height="35px" viewBox="0 0 35 35" enable-background="new 0 0 35 35" xml:space="preserve">
<path fill="#DA842F" d="M33.026,25.189l-8.313-8.313l6.588-6.586c0.855-0.855,1.328-1.996,1.328-3.207s-0.473-2.35-1.328-3.205
	c-0.856-0.857-1.994-1.328-3.205-1.328c-1.212,0-2.351,0.471-3.206,1.328l-6.588,6.588L9.811,1.974
	c-0.785-0.786-2.063-0.786-2.849,0L1.976,6.96c-0.786,0.786-0.786,2.064,0,2.85l2.686,2.688l0.152,0.152l5.651,5.653L5.278,23.49
	c-0.236,0.236-0.418,0.516-0.556,0.871l-3.13,9.229l9.254-3.143c0.32-0.121,0.604-0.305,0.845-0.545l5.185-5.189l5.491,5.492
	l1.343,1.342l1.48,1.48c0.784,0.785,2.062,0.785,2.849-0.002l4.988-4.988C33.811,27.254,33.811,25.975,33.026,25.189z M9.8,14.787
	l1.604-1.604l-1.426-1.426l-1.603,1.605l-2.137-2.139l2.493-2.492L7.307,7.305L4.813,9.798L3.399,8.386l4.987-4.988l8.491,8.492
	l-4.988,4.986L9.8,14.787z M8.227,26.314l2.1,2.102l-0.06,0.061c-0.039,0.039-0.085,0.068-0.104,0.076l-5.35,1.816l1.804-5.318
	c0.021-0.055,0.048-0.1,0.087-0.137l19.61-19.611c0.476-0.478,1.108-0.738,1.781-0.738c0.672,0,1.306,0.261,1.78,0.738
	c0.476,0.475,0.738,1.107,0.738,1.78c0,0.674-0.263,1.307-0.738,1.781l-1.338,1.34l-2.101-2.102L8.227,26.314z M26.613,31.602
	l-1.396-1.396l2.493-2.494l-1.426-1.424l-2.493,2.494l-2.136-2.139l1.603-1.605l-1.426-1.424l-1.602,1.604l-1.93-1.928l4.987-4.988
	l8.312,8.312L26.613,31.602z"/>
</svg>
