<?xml version="1.0" encoding="utf-8"?>
<!-- Generator: Adobe Illustrator 16.0.0, SVG Export Plug-In . SVG Version: 6.00 Build 0)  -->
<!DOCTYPE svg PUBLIC "-//W3C//DTD SVG 1.1//EN" "http://www.w3.org/Graphics/SVG/1.1/DTD/svg11.dtd">
<svg version="1.1" id="Layer_1" xmlns="http://www.w3.org/2000/svg" xmlns:xlink="http://www.w3.org/1999/xlink" x="0px" y="0px"
	 width="35px" height="35px" viewBox="0 0 35 35" enable-background="new 0 0 35 35" xml:space="preserve">
<g>
	<path fill="#8DB34C" d="M32.068,1.975c-4.046,0-8.296,0.62-15.769,8.094l-4.728,4.726c-3.793,0.028-8.057,2.729-9.613,4.03
		c3.168,1.914,5.32,3.059,5.625,3.219l5.398,5.398c0.02,0.039,1.174,2.191,3.223,5.584c1.301-1.555,3.995-5.809,4.03-9.596
		l4.712-4.713c7.475-7.475,8.094-11.724,8.094-15.772C33.041,2.41,32.604,1.975,32.068,1.975z M14.603,26.318l-5.903-5.904
		l3.922-3.923l5.903,5.904L14.603,26.318z M23.574,17.344l-3.678,3.679l-5.903-5.905l3.679-3.678
		c6.322-6.322,10.059-7.369,13.41-7.507C30.943,7.285,29.896,11.023,23.574,17.344z"/>
	<path fill="#8DB34C" d="M9.312,25.705c-0.379-0.379-0.994-0.379-1.373,0L2.3,31.346c-0.38,0.379-0.38,0.992,0,1.373
		c0.189,0.189,0.438,0.283,0.687,0.283c0.248,0,0.496-0.094,0.686-0.283l5.641-5.641C9.691,26.699,9.691,26.084,9.312,25.705z"/>
	<path fill="#8DB34C" d="M2.986,28.15c0.248,0,0.496-0.094,0.686-0.285l3.215-3.213c0.379-0.379,0.379-0.994,0-1.373
		s-0.994-0.379-1.373,0L2.3,26.494c-0.38,0.379-0.38,0.992,0,1.371C2.489,28.057,2.737,28.15,2.986,28.15z"/>
	<path fill="#8DB34C" d="M10.729,28.131l-3.214,3.215c-0.379,0.379-0.379,0.992,0,1.373c0.189,0.189,0.438,0.283,0.686,0.283
		s0.496-0.094,0.687-0.283l3.214-3.215c0.379-0.379,0.379-0.994,0-1.373S11.107,27.752,10.729,28.131z"/>
</g>
</svg>
