<?xml version="1.0" encoding="utf-8"?>
<!-- Generator: Adobe Illustrator 16.0.0, SVG Export Plug-In . SVG Version: 6.00 Build 0)  -->
<!DOCTYPE svg PUBLIC "-//W3C//DTD SVG 1.1//EN" "http://www.w3.org/Graphics/SVG/1.1/DTD/svg11.dtd">
<svg version="1.1" id="Layer_1" xmlns="http://www.w3.org/2000/svg" xmlns:xlink="http://www.w3.org/1999/xlink" x="0px" y="0px"
	 width="35px" height="35px" viewBox="0 0 35 35" enable-background="new 0 0 35 35" xml:space="preserve">
<path fill="#3F709D" d="M22.783,21.973c-0.16-0.049-0.289-0.559-0.279-0.902l0.002-0.037l-0.002-0.293
	c0-0.668,0.068-1.152,0.205-1.441c0.264-0.562,0.61-1.534,0.779-2.525c0.502-0.687,0.877-1.64,1.117-2.84
	c0.281-1.413,0.183-2.086-0.078-2.758l-0.006-0.014c-0.015-0.359,0.055-1.599,0.248-2.669c0.223-1.22-0.117-3.275-1.391-4.901
	c-0.857-1.096-2.481-2.439-5.36-2.621l-0.521-0.003l-0.453,0.001L16.981,0.97c-2.879,0.181-4.503,1.525-5.36,2.62
	c-1.273,1.627-1.613,3.683-1.391,4.901c0.197,1.097,0.266,2.37,0.254,2.655l-0.006,0.015c-0.268,0.686-0.365,1.359-0.084,2.774
	c0.24,1.198,0.615,2.151,1.117,2.838c0.168,0.992,0.516,1.963,0.781,2.528c0.135,0.286,0.203,0.771,0.203,1.438l-0.001,0.307
	c0.011,0.367-0.118,0.877-0.279,0.926C2.907,24.831,1,28.449,1,33.002v1.031h33v-1.031C34,28.449,32.092,24.831,22.783,21.973z
	 M12.82,23.945c1.467-0.449,1.777-2.111,1.737-2.962l0.001-0.243c0-1.002-0.127-1.74-0.399-2.316
	c-0.237-0.506-0.541-1.413-0.646-2.21l-0.041-0.305l-0.2-0.232c-0.206-0.24-0.592-0.837-0.854-2.146
	c-0.221-1.1-0.112-1.377-0.004-1.659c0.024-0.062,0.048-0.126,0.067-0.196l0.018-0.068c0.054-0.246,0.051-0.747,0.015-1.323
	c0.01,0.017,0.017,0.029,0.017,0.029c0-1.358,0.843-2.063,0.843-2.063s4.126-0.521,6.189-2.229c0.735-0.129,2.927,1.962,2.927,4.158
	c0,0.017,0.001,0.03,0.001,0.045c-0.041,0.602-0.045,1.129,0.01,1.383l0.018,0.068c0.02,0.07,0.043,0.134,0.082,0.234
	c0.094,0.244,0.202,0.521-0.017,1.621c-0.263,1.31-0.649,1.907-0.854,2.147l-0.201,0.232l-0.04,0.305
	c-0.106,0.797-0.409,1.704-0.645,2.206c-0.274,0.58-0.401,1.318-0.401,2.32v0.243c-0.039,0.851,0.271,2.513,1.737,2.962
	c0.382,0.118,0.745,0.236,1.099,0.355c-0.854,1.32-2.825,2.504-5.811,2.512c-2.971-0.008-4.938-1.18-5.799-2.493
	C12.038,24.193,12.418,24.069,12.82,23.945z M3.102,31.971c0.198-2.346,1.314-4.744,6.605-6.922
	c1.098,2.025,3.709,3.806,7.729,3.826v0.002c0.011,0,0.021-0.001,0.031-0.001c0.012,0,0.021,0.001,0.032,0.001v-0.002
	c4.034-0.021,6.649-1.812,7.74-3.848c5.337,2.186,6.46,4.59,6.659,6.943H3.102z"/>
</svg>
